<?xml version="1.0" encoding="utf-8"?>
<!-- Generator: Adobe Illustrator 23.0.4, SVG Export Plug-In . SVG Version: 6.00 Build 0)  -->
<svg version="1.1" id="layer" xmlns="http://www.w3.org/2000/svg" xmlns:xlink="http://www.w3.org/1999/xlink" x="0px" y="0px"
	 viewBox="0 0 489 341" style="enable-background:new 0 0 489 341;" xml:space="preserve">
<style type="text/css">
	.st0{fill:#281143;}
	.st1{fill:#DF1668;}
	.st2{fill:#B2DEEB;}
	.st3{fill:#5C5A58;}
	.st4{fill:#010101;}
	.st5{fill:#B29975;}
	.st6{fill:#C9B79E;}
	.st7{fill:#967C64;}
	.st8{fill:none;}
	.st9{fill:#C8C6C7;}
	.st10{fill:#727170;}
	.st11{fill:#FFFFFF;}
	.st12{fill:#9C9B9B;}
	.st13{fill:#E9E4E3;}
	.st14{fill:#F8B232;}
	.st15{fill:#A32553;}
</style>
<g id="presta">
	<g id="_Gruppe_">
		<g id="_Gruppe_2">
			<path id="_Zusammengesetzter_Pfad_" class="st0" d="M101.15,292.38c-0.1-0.6-0.1-1.1-0.1-1.7c0-4.9,1.6-8.8,4.9-11.6
				c3-2.7,6.9-4.1,10.9-4.1c5.2,0,8.9,1.9,10.9,5.9L101.15,292.38z M139.25,285.28c0.1-5.5-2.3-10.7-6.6-14.2
				c-4.3-3.6-9.8-5.5-16.3-5.5c-4.1,0-8.2,0.9-11.8,2.8c-3.8,2-7.1,4.9-9.4,8.6c-2.6,4-3.9,8.7-3.8,13.5c0,7.4,2.4,13.3,7.3,17.8
				c4.7,4.4,11,6.9,17.5,6.8c7.8,0,14.5-3,20.2-8.9l-5.9-6.6c-3.2,4.1-8.1,6.4-13.3,6.3c-5.4,0-9.6-1.9-12.8-5.7l34.9-14.7V285.28z"
				/>
			<path id="_Pfad_" class="st0" d="M79.75,268.68c-2.8,1.9-5.1,4.5-6.7,7.4v-9.7h-10v47.9h10.1v-20.5c0-5.5,1.3-9.8,3.8-13.1
				c2.5-3.3,6.2-4.9,11.2-4.9h0.5v-10.1C85.45,265.78,82.35,266.78,79.75,268.68"/>
			<path id="_Pfad_2" class="st0" d="M175.45,289.98c-1.4-1-3-1.8-4.6-2.5c-1.4-0.6-2.9-1.2-4.4-1.6c-1.5-0.5-3.2-0.9-5.1-1.4
				c-1.6-0.4-3.1-0.9-4.6-1.5c-1.5-0.5-2.4-1.9-2.4-3.5c-0.1-1.6,0.8-3.2,2.3-3.9c1.8-0.9,3.8-1.3,5.8-1.3c4.6,0,9,1.3,12.8,3.9
				l3.8-7.5c-4.6-3.2-10.1-4.9-15.7-4.9c-5.6,0-10,1.3-13.5,4.1c-3.4,2.5-5.3,6.5-5.1,10.7c0,6.3,5,10.8,14.9,13.5
				c0.2,0.1,0.6,0.2,1.1,0.3c6.3,1.9,9.5,4.1,9.5,6.5c0,1.6-0.7,3.1-1.9,4c-1.6,1.1-3.5,1.7-5.4,1.6c-5.2,0-10.6-2.1-16.2-6.3
				l-4.9,7.9c3,2.3,6.4,4.1,10,5.3c3.5,1.2,7.2,1.8,10.9,1.9c5.2,0,9.4-1.4,12.8-4.1c3.3-2.7,5.1-6.7,5-11
				C180.25,295.38,178.65,292.08,175.45,289.98"/>
			<path id="_Zusammengesetzter_Pfad_2" class="st0" d="M41.85,282.88c-2.1,2.3-6.2,3.4-12.1,3.4h-12.3v-25.2h10.8
				c5.7,0,10,0.9,12.8,2.7c2.7,1.8,4.1,4.9,4.1,9.2C45.05,277.18,43.95,280.58,41.85,282.88 M49.35,256.88
				c-4.4-3.6-11.4-5.5-20.9-5.5H6.75v63h10.7v-18.6h11.2c9.3,0,16.1-1.8,20.6-5.3c4.5-3.6,6.8-9.1,6.8-16.8
				C55.95,266.08,53.75,260.48,49.35,256.88"/>
			<path id="_Pfad_3" class="st0" d="M203.85,306.28c-1.9,0.1-3.8-0.6-5.1-2c-1.2-1.5-1.9-3.5-1.8-5.5v-24.3h12.7v-8.1h-12.7v-15
				h-10.1v47.3c0,5.1,1.5,9,4.6,12.1c2.9,2.9,6.9,4.5,11,4.5c4.3,0,8.2-1.6,11.7-4.8l-4.1-7.1
				C208.15,305.28,206.05,306.28,203.85,306.28"/>
			<path id="_Zusammengesetzter_Pfad_3" class="st0" d="M250.15,301.68c-2.6,2.9-6.3,4.5-10.1,4.4c-3.9,0-7.6-1.5-10.4-4.3
				c-3-2.9-4.4-6.7-4.4-11.2c-0.1-4.2,1.4-8.4,4.3-11.5c2.6-2.9,6.4-4.6,10.4-4.6c3.9-0.1,7.6,1.6,10.2,4.6c2.8,3,4.1,6.9,4.1,11.5
				C254.35,294.68,252.85,298.68,250.15,301.68 M254.15,274.68c-4.1-6-9.3-9-15.6-9c-6.1-0.1-12.1,2.3-16.4,6.7
				c-4.6,4.5-6.9,10.4-6.9,17.8s2.3,13.5,6.8,18.1c4.1,4.4,9.9,6.9,15.9,6.8c3.1,0,6.2-0.8,9-2.2c2.9-1.5,5.5-3.6,7.3-6.3v7.9h10.1
				v-47.9h-10.2L254.15,274.68z"/>
			<path id="_Zusammengesetzter_Pfad_4" class="st1" d="M413.75,301.68c-6.1,5.9-15.7,5.9-21.8,0c-2.9-3-4.3-6.7-4.3-11.3
				s1.4-8.4,4.3-11.3c6.1-5.9,15.7-5.9,21.8,0c2.9,3,4.3,6.7,4.3,11.3C418.05,294.98,416.65,298.78,413.75,301.68 M402.95,265.68
				c-7.2,0-13.3,2.4-18.1,7.2c-9.6,9.7-9.6,25.4,0,35.1c4.8,4.8,10.8,7.2,18.1,7.2c7.3,0,13.2-2.4,18.1-7.2c9.6-9.7,9.6-25.4,0-35.1
				C416.15,268.08,410.15,265.68,402.95,265.68"/>
			<path id="_Zusammengesetzter_Pfad_5" class="st1" d="M468.65,301.68c-2.7,2.8-6.5,4.3-10.4,4.3c-3.9,0.1-7.5-1.5-10.1-4.4
				c-2.8-3-4.1-6.7-4.1-11.2s1.3-8.4,4.1-11.4c2.6-2.9,6.3-4.6,10.2-4.6c4,0,7.7,1.6,10.4,4.6c2.9,3.1,4.5,7.3,4.3,11.5
				C473.05,295.08,471.55,298.88,468.65,301.68 M476.35,272.38c-4.4-4.4-10.3-6.8-16.5-6.7c-6.4,0-11.6,3-15.6,9.1v-8.3h-10.1v65.4
				h10.1v-24.7c4.8,5.3,10.2,7.9,16.3,7.9s11.3-2.3,15.9-6.9s6.8-10.6,6.8-18.1S480.85,276.78,476.35,272.38"/>
			<path id="_Pfad_4" class="st1" d="M354.15,265.68c-3.3,0-6.6,0.9-9.4,2.5s-5.1,4-6.5,6.9v-27.6h-10.1v66.8h10.1v-25.9
				c0-4.5,1.3-7.9,3.9-10.1c2.5-2.3,5.8-3.5,9.1-3.5c7.3,0,11,4.4,11,13.3v26.3h10.1v-29.5c0-6.2-1.7-11.1-5-14.4
				C364.05,267.28,359.55,265.68,354.15,265.68"/>
			<path id="_Pfad_5" class="st1" d="M316.05,283.98c-3.3-2.8-8.1-5-14.6-6.6s-10.7-3-12.7-4.4c-1.9-1.3-3-3.5-3-5.8
				c-0.1-2.3,1-4.5,3-5.7c2.3-1.3,4.9-2,7.6-1.9c3.2,0,6.4,0.5,9.4,1.6c2.8,0.9,5.4,2.3,7.6,4.1l5.7-8c-3-2.5-6.5-4.4-10.3-5.6
				c-3.9-1.3-7.9-2-12-1.9c-6.2,0-11.5,1.6-15.7,4.7c-4.2,3.1-6.3,7.7-6.3,13.5s1.9,10.1,5.6,13c1.9,1.5,4.1,2.8,6.4,3.6
				c3.4,1.2,7,2.3,10.6,3c4.6,1.1,7.8,2.4,9.8,3.7c1.9,1.3,2.9,3.4,2.9,5.7c0.1,2.3-1.1,4.5-3,5.8c-2,1.4-4.7,2.2-8.2,2.2
				c-6.8,0-13.4-2.8-19.8-8.3l-6.7,8c7.6,6.8,16.4,10.2,26.2,10.2c6.8,0,12.2-1.7,16.3-5.1c4-3.2,6.3-8.2,6.2-13.4
				C320.95,290.88,319.25,286.98,316.05,283.98"/>
		</g>
		<g>
			<path id="_Pfad_6" class="st2" d="M201.94,191.14c1.97-0.74,3.94-1.72,5.9-2.21c2.21-0.74,4.43-1.72,6.64-2.21
				c2.95-0.74,5.66-1.72,8.61-2.21c3.94-0.74,7.87-1.48,11.81-1.97c-2.21,7.13-4.67,14.02-7.38,20.91c0.25,1.23,0.25,2.71,0.25,3.94
				c11.07-2.21,22.14-2.21,33.21,0c0-1.23,0-2.71,0.25-3.94c-2.71-6.89-5.17-14.02-7.38-20.91c3.94,0.49,7.87,1.23,11.81,1.97
				c2.95,0.49,5.9,1.48,8.61,2.21c2.21,0.74,4.43,1.48,6.64,2.21c1.97,0.74,3.94,1.48,5.9,2.21c14.02,6.15,26.32,15.25,36.41,26.82
				c50.43-43.55,55.85-119.57,12.55-170s-119.57-55.85-170-12.55s-55.85,119.57-12.55,170c3.94,4.43,8.12,8.61,12.55,12.55
				C175.86,206.64,188.16,197.54,201.94,191.14z"/>
			<path id="_Pfad_7" class="st3" d="M210.06,213.04c5.66-2.46,11.81-4.43,17.96-5.66c0-1.23,0-2.71-0.25-3.94
				c2.71-6.89,5.17-14.02,7.38-20.91c-3.94,0.49-7.87,1.23-11.81,1.97c-2.95,0.49-5.9,1.48-8.61,2.21
				c-2.21,0.74-4.43,1.48-6.64,2.21l8.86,1.97L210.06,213.04z"/>
			<path id="_Pfad_8" class="st3" d="M189.39,226.08c0.25-2.21,0.49-4.67,0.49-6.89c0-1.23,0.98-2.46,2.21-2.46c0,0,0,0,0.25,0h2.21
				l7.63-25.59c-14.02,6.15-26.32,15.25-36.41,26.82c5.66,4.92,11.81,9.1,18.21,12.79C185.7,229.03,187.42,227.55,189.39,226.08z"/>
			<path id="_Pfad_9" class="st3" d="M286.82,191.14l7.63,25.59h2.21c1.23,0,2.46,0.98,2.46,2.21c0,0,0,0,0,0.25
				c0,2.21,0.25,4.67,0.49,6.89c1.97,1.72,3.69,3.44,5.41,4.92c6.4-3.69,12.55-8.12,18.21-12.79
				C313.39,206.64,300.84,197.54,286.82,191.14z"/>
			<path id="_Pfad_10" class="st3" d="M272.3,190.89l8.61-1.97c-2.21-0.74-4.43-1.72-6.64-2.21c-2.95-0.74-5.66-1.72-8.61-2.21
				c-3.94-0.74-7.87-1.48-11.81-1.97c2.21,7.13,4.67,14.02,7.38,20.91c-0.25,1.23-0.25,2.71-0.25,3.94
				c6.15,1.23,12.05,2.95,17.96,5.66L272.3,190.89z"/>
			<path id="_Pfad_11" class="st4" d="M244.25,216.73h16.98c-0.25-3.2-0.49-6.15-0.49-9.35c-11.07-2.21-22.14-2.21-33.21,0
				c0,3.2,0,6.15-0.49,9.35H244.25z"/>
			<path id="_Pfad_12" class="st4" d="M183.98,231c1.48,0.74,2.95,1.72,4.18,2.21c0.49-2.46,0.74-4.67,0.98-7.38
				C187.18,227.55,185.46,229.27,183.98,231z"/>
			<path id="_Pfad_13" class="st4" d="M208.83,216.73h18.7c0.25-3.2,0.49-6.15,0.49-9.35c-6.15,1.23-12.06,2.95-17.96,5.66
				L208.83,216.73z"/>
			<path id="_Pfad_14" class="st4" d="M299.61,226.08c0.25,2.46,0.49,4.92,0.98,7.38c1.48-0.74,2.95-1.48,4.18-2.21
				C303.3,229.27,301.58,227.55,299.61,226.08z"/>
			<path id="_Pfad_15" class="st4" d="M280.17,216.73l-0.98-3.69c-5.66-2.46-11.81-4.43-17.96-5.66c0,3.2,0,6.15,0.49,9.35H280.17z"
				/>
			<path id="_Pfad_16" class="st5" d="M208.83,216.73l0.98-3.69l6.64-22.14l-8.61-1.97c-1.97,0.74-3.94,1.48-5.9,2.21l-7.63,25.59
				H208.83L208.83,216.73z"/>
			<path id="_Pfad_17" class="st5" d="M278.7,213.04l0.98,3.69h14.52l-7.63-25.59c-1.97-0.74-3.94-1.72-5.9-2.21l-8.61,1.97
				L278.7,213.04z"/>
			<path id="_Pfad_18" class="st6" d="M194.56,221.89L194.56,221.89L194.56,221.89z"/>
			<path id="_Pfad_19" class="st6" d="M244.25,221.65H194.8l-0.25,0.25c-0.25,4.67-0.98,9.35-1.97,14.02
				c16.24,7.63,33.7,11.56,51.66,11.56V221.65L244.25,221.65z"/>
			<path id="_Pfad_20" class="st5" d="M294.44,221.65L294.44,221.65C294.2,221.65,294.2,221.89,294.44,221.65z"/>
			<path id="_Pfad_21" class="st5" d="M294.2,221.65h-49.45v25.59c17.96,0,35.67-3.94,51.66-11.56c-0.98-4.67-1.72-9.35-1.97-14.02
				C294.2,221.89,294.2,221.65,294.2,221.65z"/>
			<path id="_Pfad_22" class="st7" d="M299.61,226.08c-0.25-2.21-0.49-4.67-0.49-6.89c0-1.23-0.98-2.46-2.21-2.46h-0.25H191.61
				c-1.23,0-2.46,0.98-2.46,2.21c0,0,0,0,0,0.25c0,2.21-0.25,4.67-0.49,6.89s-0.74,4.92-0.98,7.38c1.48,0.74,2.95,1.48,4.67,2.21
				c0.98-4.67,1.72-9.35,1.97-14.02v-0.25h99.15v0.25c0.25,4.67,0.74,9.35,1.97,14.02c1.48-0.74,3.2-1.48,4.67-2.21
				C300.1,231,299.85,228.54,299.61,226.08z"/>
			<g id="_Gruppe_3">
				<path id="_Pfad_23" class="st8" d="M285.09,108.48L285.09,108.48c1.72,4.43,3.2,8.86,4.18,13.29v0.98
					c0,0.49-0.25,0.74-0.25,1.23c0.25-0.49,0.25-1.23,0.49-1.97C288.05,117.33,286.82,112.91,285.09,108.48z"/>
				<path id="_Pfad_24" class="st8" d="M321.01,135.05L321.01,135.05L321.01,135.05z"/>
				<path id="_Pfad_25" class="st8" d="M281.16,105.28c-2.71-2.46-5.66-4.43-8.61-6.4l0,0C275.5,100.85,278.45,103.07,281.16,105.28
					z"/>
				<path id="_Pfad_26" class="st8" d="M314.62,140.46L314.62,140.46C314.62,140.71,314.62,140.71,314.62,140.46z"/>
				<path id="_Pfad_27" class="st8" d="M288.78,124.22c0,0.49-0.25,0.74-0.25,0.98C288.54,124.96,288.54,124.47,288.78,124.22z"/>
				<path id="_Pfad_28" class="st8" d="M276.97,168.26c-1.72,2.71-2.95,5.66-3.69,8.61C274.02,173.92,275.25,170.97,276.97,168.26
					c0.49-0.98,1.23-1.97,1.97-2.95C278.2,166.29,277.47,167.28,276.97,168.26z"/>
				<path id="_Pfad_29" class="st8" d="M285.09,108.48c0.25-0.25,0.25-0.49,0.49-0.74l0,0
					C285.34,107.99,285.09,108.23,285.09,108.48c0.74,0.74,1.48,1.23,1.97,1.97C286.57,109.71,285.59,109.22,285.09,108.48z"/>
				<path id="_Pfad_30" class="st8" d="M268.36,96.42c-0.25,0-0.25-0.25-0.49-0.25C268.12,96.42,268.12,96.42,268.36,96.42z"/>
				<path id="_Pfad_31" class="st8" d="M269.1,96.91c0,0-0.25-0.25-0.49-0.25C268.86,96.67,268.86,96.91,269.1,96.91z"/>
				<path id="_Pfad_32" class="st8" d="M319.29,147.1c0.25,0.25,0.25,0.49,0.49,0.74C319.78,147.35,319.54,147.1,319.29,147.1z"/>
				<path id="_Pfad_33" class="st8" d="M273.04,110.45c0,1.23,0,2.46-0.25,3.69C272.79,112.91,272.79,111.68,273.04,110.45z"/>
				<path id="_Pfad_34" class="st8" d="M272.3,98.88c-0.49-0.25-1.72-0.74-2.71-1.48C270.58,97.9,271.81,98.64,272.3,98.88z"/>
				<path id="_Pfad_35" class="st8" d="M269.59,97.41c-0.25-0.25-0.49-0.25-0.74-0.49C269.1,96.91,269.35,97.16,269.59,97.41z"/>
				<path id="_Pfad_36" class="st8" d="M303.54,127.42l0.49,0.49l0,0C303.79,127.91,303.79,127.67,303.54,127.42z"/>
				<path id="_Pfad_37" class="st8" d="M287.06,110.45c1.72,1.48,3.2,2.95,4.67,4.67C290.26,113.4,288.78,111.92,287.06,110.45z"/>
				<path id="_Pfad_38" class="st8" d="M318.55,119.55c0.25,0,0.49,0,0.74,0.25C319.04,119.79,318.8,119.55,318.55,119.55z"/>
				<path id="_Pfad_39" class="st8" d="M319.78,119.79c0.25,0,0.49,0.25,0.74,0.25C320.03,120.04,319.78,120.04,319.78,119.79z"/>
				<path id="_Pfad_40" class="st8" d="M321.5,121.52L321.5,121.52C321.5,121.76,321.5,121.52,321.5,121.52z"/>
				<path id="_Pfad_41" class="st8" d="M315.35,121.76L315.35,121.76L315.35,121.76z"/>
				<path id="_Pfad_42" class="st8" d="M317.57,119.79c0.25,0,0.49-0.25,0.74-0.25C318.31,119.55,318.06,119.79,317.57,119.79z"/>
				<path id="_Pfad_43" class="st8" d="M296.16,119.3l-2.21-2.21C294.69,117.83,295.43,118.56,296.16,119.3z"/>
				<path id="_Pfad_44" class="st8" d="M318.55,93.22L318.55,93.22v11.32l-4.43,19.68l0,0l0,0l4.43-19.68V93.22z"/>
				<path id="_Pfad_45" class="st8" d="M300.1,123.73l-1.23-1.23C299.36,122.75,299.85,123.24,300.1,123.73z"/>
				<path id="_Pfad_46" class="st8" d="M322.73,124.22c0,0.25,0.25,0.25,0.25,0.49l0,0C322.98,124.47,322.73,124.47,322.73,124.22z"
					/>
				<path id="_Pfad_47" class="st8" d="M316.83,120.29c0.25-0.25,0.49-0.25,0.74-0.25C317.08,120.04,316.83,120.04,316.83,120.29z"
					/>
				<path id="_Pfad_48" class="st8" d="M315.85,120.78l0.74-0.74L315.85,120.78z"/>
				<path id="_Pfad_49" class="st8" d="M322.98,131.11L322.98,131.11c-0.25,0.49-0.25,0.74-0.49,1.23
					C322.73,132.1,322.73,131.6,322.98,131.11z"/>
				<path id="_Pfad_50" class="st8" d="M176.11,124.22c0.25-0.25,0.49-0.49,0.49-0.74C176.6,123.73,176.35,123.98,176.11,124.22z"/>
				<path id="_Pfad_51" class="st8" d="M320.52,120.29l0.74,0.74C321.01,120.53,320.77,120.29,320.52,120.29z"/>
				<path id="_Pfad_52" class="st8" d="M179.55,119.06c0-0.25,0.25-0.25,0.25-0.49C179.8,118.81,179.55,119.06,179.55,119.06z"/>
				<path id="_Pfad_53" class="st8" d="M170.69,134.06l-0.74,1.23L170.69,134.06z"/>
				<path id="_Pfad_54" class="st8" d="M187.18,109.95l0.49-0.49C187.92,109.71,187.67,109.71,187.18,109.95z"/>
				<path id="_Pfad_55" class="st8" d="M182.99,114.87c0.25-0.25,0.49-0.49,0.74-0.74C183.49,114.14,183.24,114.38,182.99,114.87z"
					/>
				<path id="_Pfad_56" class="st8" d="M322.73,124.22l-4.43-19.68L322.73,124.22z"/>
				<path id="_Pfad_57" class="st8" d="M247.94,138.98L247.94,138.98L247.94,138.98z"/>
				<path id="_Pfad_58" class="st8" d="M249.17,139.23L249.17,139.23C248.93,138.98,249.17,138.98,249.17,139.23z"/>
				<path id="_Pfad_59" class="st8" d="M173.4,128.65c-0.25,0.49-0.74,0.98-0.74,1.48C172.91,129.64,173.15,129.14,173.4,128.65z"/>
				<path id="_Pfad_60" class="st8" d="M239.33,125.45L239.33,125.45C239.09,125.45,239.33,125.45,239.33,125.45z"/>
				<path id="_Pfad_61" class="st8" d="M321.75,134.06c-0.25,0.25-0.25,0.49-0.49,0.49C321.5,134.31,321.75,134.06,321.75,134.06z"
					/>
				<path id="_Pfad_62" class="st8" d="M239.09,126.44L239.09,126.44C238.84,126.68,239.09,126.68,239.09,126.44z"/>
				<path id="_Pfad_63" class="st8" d="M322.49,132.83c-0.25,0.25-0.25,0.49-0.49,0.74C322.24,133.33,322.49,133.08,322.49,132.83z"
					/>
				<path id="_Pfad_64" class="st3" d="M278.94,199.51c-0.49-0.49-0.74-0.98-0.98-1.48C278.2,198.52,278.45,199.26,278.94,199.51z"
					/>
				<path id="_Pfad_65" class="st5" d="M281.65,202.21L281.65,202.21c-0.98-0.74-1.97-1.72-2.71-2.71l0,0
					C279.68,200.49,280.66,201.47,281.65,202.21z"/>
				<path id="_Pfad_66" class="st9" d="M324.7,100.11L324.7,100.11c-0.98-1.48-1.97-2.71-3.2-3.94l0,0
					c-0.49-0.49-0.98-0.98-1.48-1.48c-0.25-0.25-0.49-0.49-0.74-0.49l-0.74-0.74l0,0v11.07l4.43,19.68l0,0c0,0.25,0,0.25,0.25,0.49
					l2.95,3.2h2.95v-0.74l0,0c0-9.1-1.48-17.96-4.18-26.57l0,0C324.7,100.36,324.7,100.36,324.7,100.11z"/>
				<path id="_Pfad_67" class="st10" d="M323.23,125.95L323.23,125.95c0,0.49,0.25,0.98,0.25,1.72v0.25l0,0v1.72l0,0v0.25
					c0,0.49-0.25,0.98-0.25,1.48l0,0l2.95-3.2l-2.95-3.2l0,0C322.98,124.96,323.23,125.7,323.23,125.95z"/>
				<path id="_Zusammengesetzter_Pfad_6" class="st4" d="M323.23,129.64L323.23,129.64c0-0.74,0.25-0.98,0.25-1.72v-2.21
					c0-0.49-0.25-0.98-0.25-1.48s0-0.25-0.25-0.49c-0.25-0.98-0.49-1.72-0.98-2.46l-0.25-0.25c-0.25-0.25-0.25-0.49-0.49-0.49
					l-0.74-0.74l-0.25-0.25c-0.25-0.25-0.49-0.25-0.74-0.25h0.25c-0.25,0-0.49-0.25-0.74-0.25c-0.25,0-0.49,0-0.74,0.25h-0.25
					c-0.25,0-0.49,0.25-0.49,0.25s-0.25,0-0.25,0.25l-0.74,0.74c-0.25,0.25-0.25,0.49-0.49,0.49l-0.25,0.25
					c-0.49,0.74-0.98,1.48-0.98,2.46v0.25c-0.25,0.49-0.25,0.98-0.25,1.48v0.49c0,0.49-0.25,0.98-0.25,1.72v0.25l0,0
					c0,4.67,1.97,8.36,4.67,8.36c0.49,0,0.74-0.25,1.23-0.49c0,0,0.25,0,0.25-0.25l0,0c0.25,0,0.49-0.25,0.49-0.49l0.25-0.25
					l0.49-0.49c0.25-0.25,0.25-0.49,0.49-0.74c0.25-0.25,0.25-0.25,0.25-0.49s0.25-0.49,0.49-0.74c0,0,0-0.25,0.25-0.25l0,0
					c0.25-0.49,0.25-0.74,0.49-1.23C322.98,130.87,323.23,130.37,323.23,129.64z M318.8,126.93c-0.98,0-1.97-1.48-1.97-3.2
					c0-1.72,0.74-3.2,1.97-3.2s1.97,1.48,1.97,3.2S319.78,126.93,318.8,126.93L318.8,126.93z"/>
				<ellipse id="_Pfad_68" class="st11" cx="318.55" cy="123.73" rx="1.97" ry="3.2"/>
				<path id="_Pfad_69" class="st12" d="M314.37,124.22L314.37,124.22c0.25-0.98,0.49-1.72,0.98-2.46l0.25-0.25
					c0.25-0.25,0.25-0.49,0.49-0.49l0.74-0.74l0.25-0.25c0.25-0.25,0.49-0.25,0.74-0.25h0.25c0.25,0,0.49-0.25,0.74-0.25
					c0.25,0,0.49,0,0.74,0.25h0.25c0.25,0,0.49,0.25,0.74,0.25c0,0,0.25,0,0.25,0.25l0,0l0.74,0.74c0.25,0.25,0.25,0.49,0.49,0.49
					l0.25,0.25c0.49,0.74,0.74,1.48,0.98,2.46l0,0l-4.43-19.68L314.37,124.22L314.37,124.22z"/>
				<path id="_Zusammengesetzter_Pfad_7" class="st4" d="M261.48,127.67v-1.23l0,0c0-0.25,0-0.74-0.25-0.98l0,0
					c0-0.49-0.25-0.74-0.25-0.98l0,0c-0.25-0.49-0.25-0.74-0.49-0.98l0,0c-0.25-0.25-0.49-0.74-0.49-0.98l0,0
					c-0.49-0.98-1.23-1.97-1.97-2.71c-0.98-0.98-2.21-1.72-3.44-2.21l0,0c-0.74-0.25-1.23-0.49-1.97-0.49l0,0
					c-0.74-0.25-1.48-0.25-1.97-0.25c-0.74,0-1.48,0-1.97,0.25l0,0l-1.97,0.49l0,0c-0.74,0.25-1.48,0.49-1.97,0.98l0,0
					c-0.74,0.49-0.98,0.74-1.72,1.23l0,0c-0.74,0.74-1.48,1.72-1.97,2.71l0,0c-0.25,0.25-0.25,0.49-0.49,0.74l0,0
					c-0.25,0.25-0.25,0.49-0.49,0.74v0.25c0,0.25-0.25,0.74-0.25,0.74v0.25c0,0.25,0,0.49-0.25,0.74v1.48c0,0.74,0,1.48,0.25,2.21
					l0,0c0.25,0.74,0.49,1.48,0.49,1.97l0,0c0.49,1.23,1.23,2.46,2.21,3.44c0.74,0.74,1.72,1.48,2.71,1.97l0,0
					c0.25,0.25,0.74,0.49,0.98,0.49l0,0c0.25,0.25,0.74,0.25,0.74,0.49h0.25c0.25,0,0.74,0.25,0.74,0.25h0.25
					c0.25,0,0.49,0,0.74,0.25h1.48c1.48,0,2.95-0.25,4.43-0.74c0.74-0.25,1.48-0.49,1.97-0.98c1.23-0.74,2.21-1.97,3.2-3.2
					c0.49-0.49,0.74-1.23,0.98-1.97C261.48,130.37,261.72,128.9,261.48,127.67L261.48,127.67z M250.4,126.44
					c-2.46,0-4.43-1.97-4.43-4.43c0-2.46,1.97-4.43,4.43-4.43s4.43,1.97,4.43,4.43C254.59,124.47,252.62,126.44,250.4,126.44z"/>
				<circle id="_Pfad_70" class="st11" cx="250.4" cy="122.01" r="4.43"/>
				<path id="_Pfad_71" class="st9" d="M242.53,119.79L242.53,119.79l7.87-23.86v-5.66l0,0c-4.43-0.98-8.86-1.48-13.53-1.48
					c-1.48,0-2.95,0-4.67,0.25h-0.74c-7.87,0.74-15.5,2.71-22.88,5.9c-6.15,2.71-11.81,6.4-16.98,10.82l0,0
					c-1.48,1.23-2.71,2.46-3.94,3.69l-0.49,0.49c-1.23,1.23-2.21,2.46-3.44,3.69c-0.25,0.25-0.49,0.49-0.74,0.74
					c-0.98,1.23-2.21,2.71-3.44,4.18c0,0.25-0.25,0.25-0.25,0.49c-0.98,1.48-1.97,2.71-2.95,4.18c-0.25,0.25-0.49,0.74-0.74,0.74
					c-0.74,1.23-1.48,2.46-1.97,3.44h35.43L242.53,119.79z"/>
				<path id="_Pfad_72" class="st13" d="M272.55,117.09c0-0.74,0.25-1.97,0.25-2.71c0-1.23,0.25-2.46,0.25-3.69V107
					c0-2.46-0.25-4.92-0.25-7.63h-0.25c-0.49-0.25-1.72-0.74-2.71-1.48l0,0c-0.25-0.25-0.49-0.25-0.74-0.49l0,0
					c0,0-0.25-0.25-0.49-0.25l0,0c-0.25,0-0.25-0.25-0.49-0.25c-1.72-0.74-3.2-1.72-4.92-2.21c-4.18-1.48-8.36-2.95-12.55-3.94v5.66
					l7.63,23.86l0,0c0.74,0.74,1.48,1.72,1.97,2.71l0,0c0.25,0.49,0.49,0.74,0.49,0.98l0,0c0.25,0.49,0.25,0.74,0.49,0.98l0,0
					c0.25,0.25,0.25,0.74,0.25,0.98l0,0c0,0.25,0,0.74,0.25,0.98l0,0v1.23h9.59c0.49-3.44,0.98-7.13,1.48-10.58v-0.49H272.55z"/>
				<path id="_Pfad_73" class="st14" d="M261.72,161.86l6.15-6.15c1.23-1.23,2.21-2.21,3.2-3.44c7.87-8.61,13.78-16.73,17.22-27.06
					c0-0.25,0.25-0.74,0.25-0.98v-0.25c0-0.49,0.25-0.74,0.25-1.23v-0.98c-0.98-4.43-2.46-9.1-4.18-13.29l0,0l-0.74-0.74
					c-0.74-0.74-1.97-1.72-2.71-2.46c-2.71-2.46-5.66-4.43-8.61-6.4l0,0c0.25,2.46,0.25,4.92,0.25,7.63v3.69
					c0,1.23,0,2.46-0.25,3.69c0,0.74-0.25,1.97-0.25,2.71v0.25c-0.25,3.44-0.74,7.13-1.48,10.58l-0.74,5.9
					c-2.21,9.35-7.13,17.96-11.07,26.82c-0.98,2.21-1.97,4.67-2.95,7.13c0,0.25-0.25,0.49-0.25,0.74l3.2-3.2
					C259.75,163.59,260.98,162.85,261.72,161.86z"/>
				<path id="_Pfad_74" class="st12" d="M242.53,119.55L242.53,119.55c0.49-0.49,0.98-0.98,1.72-1.23l0,0
					c0.49-0.49,1.23-0.49,1.97-0.98l0,0c0.74-0.25,1.23-0.49,1.97-0.49l0,0c0.74-0.25,1.23-0.25,1.97-0.25s1.48,0,1.97,0.25l0,0
					l1.97,0.49l0,0c1.23,0.49,2.46,1.23,3.44,2.21l0,0l-7.63-23.86L242.53,119.55z"/>
				<path id="_Pfad_75" class="st10" d="M239.83,132.34c-0.25-0.74-0.49-1.48-0.74-1.97l0,0c-0.25-0.74-0.25-1.48-0.25-2.21v-1.48
					c0-0.25,0-0.49,0.25-0.74v-0.25c0-0.25,0.25-0.74,0.25-0.74v-0.25c0-0.25,0.25-0.49,0.49-0.74l0,0
					c0.25-0.49,0.25-0.74,0.49-0.74l0,0c0.49-0.98,1.23-1.97,1.97-2.71l0,0l-32.72,8.12l0,0l32.72,7.87
					C241.06,134.8,240.32,133.57,239.83,132.34L239.83,132.34z"/>
				<path id="_Pfad_76" class="st13" d="M313.88,125.95v-0.49c0-0.49,0.25-0.74,0.25-1.48v-0.25l4.43-19.68V92.73
					c-3.2-2.71-7.13-4.43-11.32-4.67c-4.92,0.25-9.59,2.46-13.04,5.9c-3.69,3.94-6.89,8.36-9.1,13.04
					c-0.25,0.25-0.25,0.49-0.49,0.74c0.74,0.74,1.48,1.23,1.97,1.97c1.72,1.48,3.2,2.95,4.67,4.67l1.97,1.97l2.21,2.21
					c0.98,0.98,1.97,1.97,2.95,3.2l1.23,1.23c0.98,1.23,2.21,2.46,3.2,3.69l0,0l0.49,0.49h10.09v-0.25
					C313.63,126.93,313.63,126.44,313.88,125.95z"/>
				<path id="_Pfad_77" class="st3" d="M168.23,140.21L168.23,140.21c0.49-1.97,1.23-3.44,1.97-4.92l0.74-1.23l1.97-3.69
					c0.25-0.49,0.49-0.98,0.74-1.48c0.25-0.25,0.25-0.49,0.49-0.74c0.74-1.23,1.48-2.46,1.97-3.44c0.25-0.25,0.49-0.74,0.49-0.74
					c0.98-1.48,1.72-2.95,2.95-4.18c0-0.25,0.25-0.25,0.25-0.49c0.98-1.48,1.97-2.71,3.2-4.18c0.25-0.25,0.49-0.49,0.74-0.74
					c0.98-1.23,2.21-2.46,3.44-3.69l0.74-0.74c1.23-1.23,2.71-2.46,3.94-3.69l0,0c5.41-18.45,22.39-31.24,41.58-31.49
					c7.87,0,15.75,2.21,22.39,6.64c6.89,4.18,12.55,10.33,16.24,17.71v0.25c0,0.25,0.25,0.49,0.25,0.74l0,0
					c3.2,1.72,6.15,3.94,8.61,6.4c0.74,0.74,1.97,1.72,2.71,2.46l0.74,0.74l0,0c0-0.25,0.25-0.49,0.25-0.74
					c2.71-17.47,10.33-30.01,19.44-30.01c6.89,0,12.79,7.13,16.73,17.96v0.25l0,0l3.2,3.69l0,0c0,0.25,0,0.49,0.25,0.49l0,0
					l-0.25-0.49c-11.56-34.44-43.79-57.57-80.2-57.57c-46.01-0.49-83.89,37.4-83.89,84.14c0,8.86,1.48,17.71,4.18,26.32l0,0
					l1.97-7.38C166.76,143.9,167.5,141.94,168.23,140.21z"/>
				<path id="_Pfad_78" class="st11" d="M325.93,127.91l-2.95,3.2l0,0c-0.25,0.49-0.25,0.74-0.49,1.23c0,0,0,0.25-0.25,0.25l0,0
					c-0.25,0.25-0.25,0.74-0.49,0.74c-0.25,0-0.25,0.25-0.25,0.49c0,0.25-0.25,0.49-0.49,0.49l-0.74,0.74l-0.25,0.25
					c-0.25,0.25-0.49,0.25-0.49,0.49s-0.25,0-0.25,0.25c-0.49,0.25-0.74,0.49-1.23,0.49c-2.71,0-4.67-3.69-4.67-8.36h-9.84
					c1.97,1.97,3.44,4.18,5.41,6.4l0,0l4.92,6.15l0.25,0.25c1.72,1.97,3.2,3.94,4.67,5.9c0.25,0.25,0.25,0.49,0.49,0.74
					c1.72,1.97,3.2,4.43,4.67,6.4l0,0c2.71-8.36,4.18-17.22,4.43-26.08L325.93,127.91L325.93,127.91z"/>
				<path id="_Pfad_79" class="st4" d="M231.71,88.8h0.74c1.48,0,3.2-0.25,4.67-0.25c4.43,0,9.1,0.49,13.53,1.48l0,0v-0.25
					c4.43,0.98,8.61,2.21,12.55,3.94c1.72,0.74,3.44,1.48,4.92,2.21c0,0,0.25,0.25,0.49,0.25l0,0c0.25,0,0.25,0,0.49,0.25l0,0
					c0.25,0.25,0.49,0.25,0.74,0.49l0,0c0.98,0.74,2.21,1.23,2.71,1.48h0.25c0-0.25-0.25-0.49-0.25-0.74v-0.25
					c-3.94-6.89-9.59-12.55-16.24-16.73c-6.64-4.18-14.52-6.4-22.39-6.4c-19.19,0.25-36.16,13.04-41.58,31.49
					c5.17-4.43,10.82-8.12,16.98-10.82C216.21,91.5,223.83,89.53,231.71,88.8z"/>
				<path id="_Pfad_80" class="st4" d="M294.44,94.95c3.44-3.69,8.12-5.66,13.04-5.9c4.18,0.25,8.12,1.72,11.32,4.67l0,0
					c0.49,0.25,0.49,0.74,0.74,0.74c0.25,0.25,0.49,0.49,0.74,0.49l1.48,1.48l0,0v-0.25c-3.69-11.07-9.84-17.96-16.73-17.96
					c-9.1,0-16.73,12.55-19.44,30.01l0,0C287.8,103.07,290.75,98.64,294.44,94.95z"/>
				<path id="_Pfad_81" class="st11" d="M214.24,205.66c0.74,0.25,1.48,0.74,2.21,0.74c8.86,3.2,18.45,4.92,27.8,4.67
					c10.82,0,21.4-2.21,31.49-5.9c0.49-0.25,0.98-0.49,1.48-0.74c0.74-0.49,1.72-0.74,2.46-0.98s1.48-0.74,1.97-0.98h-0.74
					c-2.95,0.49-5.9,0.49-8.86,0c-17.47-2.46-21.16-10.82-20.67-19.44c-1.23-0.74-2.46-1.48-3.69-2.46
					c-7.87-5.9-15.01-12.55-21.4-20.17c7.87,5.66,16.73,10.33,25.83,14.02c0.49,0.25,0.74,0.25,0.98,0.49
					c0.74-2.46,1.72-4.67,2.21-6.89l0,0c0-0.25,0.25-0.49,0.25-0.74c0.74-2.46,1.72-4.67,2.95-7.13
					c3.94-8.86,8.61-17.47,11.07-26.82l0.98-5.17h-8.86c0,1.48-0.25,2.95-0.74,4.43c-0.25,0.74-0.49,1.23-0.98,1.97
					c-0.74,1.23-1.97,2.21-3.2,3.2c-0.49,0.49-1.23,0.74-1.97,0.98c-1.48,0.49-2.95,0.74-4.43,0.74h-1.48c-0.25,0-0.49,0-0.74-0.25
					h-0.25c-0.25,0-0.74-0.25-0.74-0.25h-0.25c-0.25-0.25-0.74-0.25-0.74-0.49l0,0c-0.49-0.25-0.49-0.25-0.98-0.49l0,0
					c-0.98-0.49-1.97-1.23-2.71-1.97l-32.47-7.87h-35.92c-0.25,0.25-0.25,0.49-0.49,0.74c-0.25,0.49-0.74,0.98-0.74,1.48l-1.97,3.69
					l-0.74,1.23c-0.49,1.72-1.48,3.2-1.97,4.67v0.25c-0.74,1.72-1.48,3.69-1.97,5.66c-0.74,2.46-1.48,4.92-1.97,7.38
					c5.66,16.98,16.24,31.74,30.75,42.07c0.49,0.25,0.74,0.74,1.23,0.74c2.46,1.72,4.92,3.2,7.38,4.67
					C207.1,202.95,210.8,204.43,214.24,205.66z"/>
				<path id="_Pfad_82" class="st15" d="M272.79,179.58c-0.25,0.98-0.25,1.72-0.25,2.71c0,1.48,0,2.95,0.25,4.43
					c0.25,0.98,0.49,1.97,0.74,2.71c0.49,1.23,0.74,2.46,1.23,3.44c0.49,0.98,0.98,2.21,1.72,3.2c0.25,0.25,0.49,0.74,0.74,0.74
					c0.25,0,0.49,0.74,0.74,1.23c0.49,0.49,0.74,0.98,0.98,1.48c0.74,0.98,1.72,1.97,2.71,2.71l0,0v0.25h0.49
					c3.94-0.49,7.63-1.48,11.32-2.95c1.97-0.74,3.69-1.48,5.66-2.21c0.74-0.25,0.98-0.49,1.72-0.74
					c19.44-9.35,35.43-26.08,35.43-26.08C312.16,182.78,288.54,182.04,272.79,179.58z"/>
				<path id="_Pfad_83" class="st1" d="M319.29,147.1c-1.48-1.97-3.2-3.94-4.67-5.9l-0.25-0.25l-4.92-6.15l0,0
					c-1.72-1.97-3.44-4.18-5.41-6.4l-0.49-0.49c-0.98-1.23-2.21-2.46-3.44-3.69l-1.23-1.23c-0.98-0.98-1.97-1.97-2.95-3.2
					l-2.21-2.21l-1.97-1.97c-1.48-1.48-3.2-3.2-4.67-4.67c-0.49-0.74-1.48-1.23-1.97-1.97l0,0c1.72,4.43,3.2,8.86,4.18,13.53
					c0.25,1.23,0.49,2.21,0.74,3.44c1.97,15.75-2.95,26.08-11.07,39.86c-0.49,0.98-1.23,1.97-1.97,2.95
					c-1.72,2.71-2.95,5.66-3.69,8.61c-0.25,0.74-0.49,1.97-0.74,2.71c15.75,2.46,39.61,3.2,63.97-8.86c0,0-4.67-7.13-12.05-16.73
					c-1.72-1.97-3.2-4.43-4.67-6.4C319.78,147.35,319.54,147.1,319.29,147.1z"/>
				<path id="_Pfad_84" class="st4" d="M281.65,202.21c-0.98-0.74-1.97-1.72-2.71-2.71c-0.49-0.49-0.74-0.98-0.98-1.48
					c-0.25-0.49-0.74-0.74-0.74-1.23c0-0.49-0.49-0.74-0.49-0.74c-0.74-0.98-1.23-1.97-1.72-3.2c-0.49-1.23-0.98-2.21-1.23-3.44
					c-0.25-0.74-0.49-1.72-0.74-2.71c-0.25-1.48-0.25-2.95-0.25-4.43c0-0.74,0.25-1.72,0.25-2.71c0-0.98,0.25-1.72,0.74-2.71
					c0.74-3.2,1.97-6.15,3.69-8.61l0,0c0.74-0.98,1.23-1.97,1.72-2.95c8.12-13.78,13.04-23.86,11.07-39.86
					c-0.25-0.98-0.49-2.21-0.74-3.44c-0.25,0.74-0.25,1.48-0.49,1.97v0.25c0,0.49-0.25,0.74-0.25,0.98
					c-3.44,10.33-9.35,18.45-17.22,27.06c-0.98,1.23-2.21,2.21-3.2,3.44c-1.97,2.21-3.94,4.18-6.15,6.15l-2.71,2.71l-3.2,3.2l0,0
					c-0.98,2.21-1.72,4.43-2.21,6.89c-0.49-0.25-0.74-0.25-0.98-0.49c-9.1-3.44-17.71-8.12-25.83-14.02
					c6.15,7.63,13.29,14.52,21.4,20.17c1.23,0.98,2.46,1.72,3.69,2.46c-0.74,8.61,3.2,16.98,20.67,19.44
					C275.99,202.95,278.94,202.95,281.65,202.21C281.65,202.46,281.65,202.46,281.65,202.21z"/>
			</g>
		</g>
	</g>
</g>
</svg>
