<?xml version="1.0" encoding="utf-8"?>
<!-- Generator: Adobe Illustrator 23.0.4, SVG Export Plug-In . SVG Version: 6.00 Build 0)  -->
<svg version="1.1" id="Capa_1" xmlns="http://www.w3.org/2000/svg" xmlns:xlink="http://www.w3.org/1999/xlink" x="0px" y="0px"
	 viewBox="0 0 393 283.93" style="enable-background:new 0 0 393 283.93;" xml:space="preserve">
<style type="text/css">
	.st0{fill:#31363B;}
</style>
<g id="Logotype">
	<g id="Wordmark">
		<path class="st0" d="M176.94,230.81h-19.82v2.1c6.2,0,7.2,1.33,7.2,9.19v14.18c0,7.86-1,9.3-7.2,9.3
			c-4.76-0.66-7.97-3.21-12.4-8.08l-5.09-5.54c6.87-1.22,10.52-5.54,10.52-10.41c0-6.09-5.2-10.74-14.95-10.74h-19.49v2.1
			c6.2,0,7.2,1.33,7.2,9.19v14.18c0,7.86-1,9.3-7.2,9.3v2.1h22.04v-2.1c-6.2,0-7.2-1.44-7.2-9.3v-3.99h1.88l12.29,15.39h32.23
			c15.84,0,22.7-8.42,22.7-18.5C199.64,239.11,192.77,230.81,176.94,230.81z M130.53,248.86v-14.73h4.54c4.98,0,7.2,3.43,7.2,7.42
			c0,3.88-2.22,7.31-7.2,7.31C135.07,248.86,130.53,248.86,130.53,248.86z M177.27,264.25h-0.78c-3.99,0-4.54-1-4.54-6.09v-24.03
			c0,0,4.87,0,5.32,0c11.52,0,13.62,8.42,13.62,14.95C190.89,255.84,188.78,264.25,177.27,264.25z"/>
		<path class="st0" d="M54,252.96l7.64-22.6c2.22-6.53,1.22-8.42-5.87-8.42v-2.22h20.82v2.22c-6.98,0-8.64,1.66-11.41,9.75
			l-12.63,37.88h-1.44l-11.3-34.67l-11.52,34.67h-1.44l-12.29-37.88c-2.66-8.08-4.43-9.75-10.85-9.75v-2.22H28.3v2.22
			c-6.54,0-8.31,1.55-5.98,8.42l7.42,22.6l11.19-33.23h2.1L54,252.96z"/>
		<path class="st0" d="M91.66,269.13c-12.18,0-22.15-8.97-22.15-19.94c0-10.85,9.97-19.82,22.15-19.82
			c12.18,0,22.15,8.97,22.15,19.82C113.81,260.16,103.84,269.13,91.66,269.13z M91.66,232.8c-10.19,0-13.73,9.19-13.73,16.39
			c0,7.31,3.54,16.39,13.73,16.39c10.3,0,13.84-9.08,13.84-16.39C105.5,241.99,101.96,232.8,91.66,232.8z"/>
		<path class="st0" d="M226.99,265.47v2.21h-25.36v-2.21c7.42,0,8.75-1.88,8.75-12.96v-17.72c0-11.08-1.33-12.85-8.75-12.85v-2.22
			h22.92c11.41,0,17.72,5.87,17.72,13.73c0,7.64-6.31,13.62-17.72,13.62h-6.31v5.43C218.24,263.59,219.57,265.47,226.99,265.47z
			 M224.56,223.72h-6.31v19.27h6.31c6.2,0,9.08-4.32,9.08-9.52C233.64,228.15,230.76,223.72,224.56,223.72z"/>
		<path class="st0" d="M318.36,257.28l-0.55,1.99c-1,3.65-2.22,4.98-10.08,4.98h-1.55c-5.76,0-6.75-1.33-6.75-9.19v-5.09
			c8.64,0,9.3,0.77,9.3,6.53h2.1V240h-2.1c0,5.76-0.66,6.53-9.3,6.53v-12.4h6.09c7.86,0,9.08,1.33,10.08,4.98l0.55,2.1h1.77
			l-0.77-10.41h-32.56v2.1c6.2,0,7.2,1.33,7.2,9.19v14.18c0,7.19-0.85,9.01-5.74,9.26c-4.65-0.71-7.84-3.24-12.2-8.05l-5.09-5.54
			c6.87-1.22,10.52-5.54,10.52-10.41c0-6.09-5.2-10.74-14.95-10.74h-19.49v2.1c6.2,0,7.2,1.33,7.2,9.19v14.18c0,7.86-1,9.3-7.2,9.3
			v2.1h22.04v-2.1c-6.2,0-7.2-1.44-7.2-9.3v-3.99h1.87l12.29,15.39h45.52l0.66-10.41h-1.66V257.28z M259.66,248.86v-14.73h4.54
			c4.98,0,7.2,3.43,7.2,7.42c0,3.88-2.22,7.31-7.2,7.31C264.2,248.86,259.66,248.86,259.66,248.86z"/>
		<path class="st0" d="M340.84,269.13c-4.43,0-8.31-2.33-9.97-3.77c-0.55,0.55-1.55,2.22-1.77,3.77H327v-15.29h2.21
			c0.89,7.31,5.98,11.63,12.52,11.63c3.54,0,6.42-1.99,6.42-5.32c0-2.88-2.55-5.09-7.09-7.2l-6.31-2.99
			c-4.43-2.11-7.75-5.76-7.75-10.63c0-5.32,4.98-9.86,11.85-9.86c3.65,0,6.75,1.33,8.64,2.88c0.55-0.44,1.11-1.66,1.44-2.99h2.1
			v13.07h-2.33c-0.78-5.21-3.65-9.53-9.52-9.53c-3.1,0-5.98,1.77-5.98,4.54c0,2.88,2.33,4.43,7.64,6.87l6.09,2.99
			c5.32,2.55,7.42,6.65,7.42,9.97C354.35,264.25,348.26,269.13,340.84,269.13z"/>
		<path class="st0" d="M374.33,269.13c-4.43,0-8.31-2.33-9.97-3.77c-0.55,0.55-1.55,2.22-1.77,3.77h-2.1v-15.29h2.21
			c0.89,7.31,5.98,11.63,12.52,11.63c3.54,0,6.42-1.99,6.42-5.32c0-2.88-2.55-5.09-7.09-7.2l-6.31-2.99
			c-4.43-2.11-7.75-5.76-7.75-10.63c0-5.32,4.98-9.86,11.85-9.86c3.65,0,6.75,1.33,8.64,2.88c0.55-0.44,1.11-1.66,1.44-2.99h2.1
			v13.07h-2.33c-0.78-5.21-3.65-9.53-9.52-9.53c-3.1,0-5.98,1.77-5.98,4.54c0,2.88,2.33,4.43,7.64,6.87l6.09,2.99
			c5.32,2.55,7.42,6.65,7.42,9.97C387.84,264.25,381.75,269.13,374.33,269.13z"/>
	</g>
	<g id="W_Mark">
		<path class="st0" d="M195.78,11.12c12.6,0,24.8,2.47,36.29,7.33c5.53,2.33,10.85,5.24,15.85,8.6c4.94,3.34,9.58,7.17,13.82,11.39
			c4.22,4.22,8.06,8.86,11.39,13.82c3.36,4.98,6.27,10.31,8.6,15.85c4.86,11.49,7.33,23.71,7.33,36.29s-2.47,24.8-7.33,36.29
			c-2.33,5.53-5.24,10.85-8.6,15.85c-3.34,4.94-7.17,9.58-11.39,13.82c-4.22,4.22-8.86,8.06-13.82,11.39
			c-4.98,3.36-10.31,6.25-15.85,8.6c-11.49,4.86-23.71,7.33-36.29,7.33c-12.6,0-24.8-2.47-36.29-7.33
			c-5.53-2.33-10.85-5.24-15.85-8.6c-4.94-3.34-9.58-7.17-13.82-11.39c-4.22-4.22-8.06-8.86-11.39-13.82
			c-3.36-4.98-6.25-10.31-8.6-15.85c-4.86-11.51-7.33-23.71-7.33-36.31s2.47-24.81,7.33-36.29c2.33-5.53,5.24-10.85,8.6-15.85
			c3.34-4.94,7.17-9.58,11.39-13.82c4.22-4.22,8.86-8.06,13.82-11.39c4.98-3.36,10.31-6.25,15.85-8.6
			C170.97,13.57,183.18,11.12,195.78,11.12 M195.78,5.15c-54.81,0-99.22,44.41-99.22,99.22s44.41,99.22,99.22,99.22
			S295,159.18,295,104.37C295,49.58,250.59,5.15,195.78,5.15L195.78,5.15z"/>
		<path class="st0" d="M113.1,104.37c0,32.73,19.01,61.02,46.6,74.41L120.25,70.73C115.67,81,113.1,92.39,113.1,104.37z
			 M251.6,100.21c0-10.21-3.66-17.3-6.81-22.79c-4.2-6.81-8.12-12.58-8.12-19.39c0-7.6,5.75-14.67,13.88-14.67
			c0.36,0,0.72,0.04,1.08,0.06c-14.71-13.48-34.3-21.7-55.84-21.7c-28.89,0-54.31,14.83-69.08,37.27c1.95,0.06,3.76,0.1,5.32,0.1
			c8.64,0,22.04-1.06,22.04-1.06c4.46-0.26,4.98,6.29,0.54,6.81c0,0-4.48,0.52-9.46,0.78l30.1,89.56l18.1-54.27l-12.88-35.3
			c-4.46-0.26-8.68-0.78-8.68-0.78c-4.46-0.26-3.94-7.07,0.52-6.81c0,0,13.66,1.06,21.78,1.06c8.64,0,22.04-1.06,22.04-1.06
			c4.46-0.26,4.98,6.29,0.52,6.81c0,0-4.48,0.52-9.46,0.78l29.88,88.87l8.52-27.03C249.37,115.66,251.6,107.28,251.6,100.21z
			 M197.23,111.62l-24.81,72.07c7.41,2.19,15.25,3.36,23.35,3.36c9.64,0,18.87-1.65,27.45-4.68c-0.22-0.36-0.42-0.74-0.6-1.13
			L197.23,111.62z M268.34,64.71c0.36,2.63,0.56,5.45,0.56,8.5c0,8.38-1.57,17.82-6.29,29.62l-25.26,73
			c24.59-14.33,41.11-40.97,41.11-71.47C278.46,90,274.79,76.48,268.34,64.71z"/>
	</g>
</g>
</svg>
