<?xml version="1.0" encoding="utf-8"?>
<!-- Generator: Adobe Illustrator 23.0.4, SVG Export Plug-In . SVG Version: 6.00 Build 0)  -->
<svg version="1.1" id="Layer_1" xmlns="http://www.w3.org/2000/svg" xmlns:xlink="http://www.w3.org/1999/xlink" x="0px" y="0px"
	 viewBox="0 0 479.82 120.96" style="enable-background:new 0 0 479.82 120.96;" xml:space="preserve">
<path d="M34.17,73.75H17.42c2.22,7.61,6.33,14.42,12.35,20.45c9.6,9.6,21.15,14.4,34.65,14.4c2.7,0,5.31-0.2,7.85-0.58
	c10.17-1.54,19.07-6.13,26.7-13.81c6.06-6.02,10.21-12.84,12.44-20.45h-6.79h-9.94H34.17z"/>
<g>
	<path d="M112.67,51.01c0.32,1.92,0.54,3.88,0.64,5.9h-6.87H31.16h-5.22h-10.4c0.1-2.01,0.32-3.97,0.64-5.9h8.75H112.67z"/>
	<path d="M113.31,62.38c-0.1,2.01-0.32,3.98-0.64,5.9h-6.85H32.17h-6.89h-9.09c-0.32-1.92-0.54-3.88-0.64-5.9H113.31z"/>
</g>
<path d="M111.43,45.53c-2.23-7.63-6.38-14.47-12.44-20.54c-7.61-7.61-16.49-12.17-26.62-13.71c-2.56-0.39-5.21-0.59-7.93-0.59
	c-13.5,0-25.05,4.77-34.65,14.3c-6.03,6.07-10.14,12.91-12.36,20.54L111.43,45.53L111.43,45.53z"/>
<g>
	<path d="M12.64,59.64c0-25.82,19.4-47.28,44.63-51.05c-0.63-0.02-1.25-0.05-1.89-0.05c-28.31,0-51.27,22.88-51.27,51.1
		c0,28.22,22.95,51.1,51.27,51.1c0.63,0,1.26-0.02,1.89-0.05C32.04,106.93,12.64,85.47,12.64,59.64z"/>
</g>
<rect x="283.71" y="4.48" width="10.2" height="12.91"/>
<path d="M198.57,57.61v4.99h-46.88c0.44,7.02,2.56,12.37,6.35,16.05c3.79,3.68,9.06,5.51,15.82,5.51c3.92,0,7.71-0.48,11.39-1.44
	c3.68-0.96,7.32-2.4,10.94-4.32v9.64c-3.66,1.55-7.41,2.73-11.25,3.55s-7.74,1.22-11.69,1.22c-9.9,0-17.74-2.88-23.52-8.65
	c-5.78-5.76-8.67-13.56-8.67-23.39c0-10.16,2.74-18.23,8.23-24.19s12.89-8.95,22.2-8.95c8.35,0,14.95,2.69,19.81,8.06
	C196.14,41.07,198.57,48.38,198.57,57.61 M188.38,54.62c-0.07-5.58-1.64-10.03-4.68-13.36c-3.05-3.33-7.09-4.99-12.11-4.99
	c-5.69,0-10.24,1.61-13.66,4.82c-3.42,3.21-5.38,7.74-5.9,13.58L188.38,54.62z"/>
<path d="M251.47,31.51v9.53c-2.88-1.59-5.77-2.78-8.67-3.57c-2.9-0.8-5.83-1.19-8.79-1.19c-6.61,0-11.75,2.1-15.4,6.29
	c-3.66,4.19-5.49,10.08-5.49,17.65c0,7.57,1.83,13.46,5.49,17.65c3.66,4.2,8.79,6.29,15.4,6.29c2.96,0,5.88-0.4,8.79-1.19
	c2.9-0.8,5.79-1.99,8.67-3.58v9.42c-2.85,1.33-5.79,2.33-8.84,2.99c-3.05,0.67-6.29,1-9.73,1c-9.35,0-16.77-2.94-22.28-8.81
	c-5.51-5.87-8.26-13.8-8.26-23.77c0-10.12,2.78-18.08,8.34-23.89c5.56-5.8,13.18-8.7,22.86-8.7c3.14,0,6.21,0.33,9.2,0.97
	C245.76,29.25,248.66,30.22,251.47,31.51"/>
<rect x="260.69" y="4.97" width="10.2" height="86.23"/>
<path d="M283.71,29.13h10.2V91.2h-10.2V29.13z"/>
<path d="M316.59,81.89v32.92h-10.25V29.13h10.25v9.42c2.14-3.69,4.85-6.44,8.12-8.23c3.27-1.79,7.18-2.69,11.72-2.69
	c7.54,0,13.66,2.99,18.37,8.98c4.71,5.99,7.07,13.86,7.07,23.61c0,9.76-2.36,17.63-7.07,23.61c-4.71,5.98-10.83,8.98-18.37,8.98
	c-4.54,0-8.45-0.9-11.72-2.69C321.44,88.33,318.74,85.58,316.59,81.89 M351.29,60.22c0-7.5-1.54-13.38-4.63-17.65
	c-3.08-4.27-7.32-6.4-12.72-6.4s-9.64,2.13-12.72,6.4c-3.09,4.27-4.63,10.15-4.63,17.65c0,7.5,1.54,13.39,4.63,17.65
	c3.08,4.27,7.32,6.4,12.72,6.4s9.64-2.13,12.72-6.4C349.74,73.6,351.29,67.72,351.29,60.22"/>
<path d="M409.83,30.96v9.64c-2.88-1.48-5.88-2.59-8.98-3.33c-3.1-0.74-6.32-1.11-9.64-1.11c-5.06,0-8.86,0.77-11.39,2.33
	c-2.53,1.55-3.8,3.88-3.8,6.98c0,2.36,0.9,4.22,2.71,5.57c1.81,1.35,5.45,2.63,10.92,3.85l3.49,0.77
	c7.24,1.55,12.39,3.74,15.43,6.57c3.05,2.83,4.57,6.77,4.57,11.83c0,5.76-2.28,10.33-6.85,13.69c-4.56,3.36-10.83,5.04-18.81,5.04
	c-3.32,0-6.79-0.32-10.39-0.97c-3.6-0.65-7.4-1.62-11.39-2.91V78.39c3.77,1.96,7.48,3.43,11.14,4.41c3.66,0.98,7.28,1.47,10.86,1.47
	c4.8,0,8.5-0.82,11.08-2.46c2.59-1.65,3.88-3.96,3.88-6.95c0-2.77-0.93-4.89-2.8-6.38c-1.87-1.48-5.96-2.9-12.28-4.27l-3.55-0.83
	c-6.32-1.33-10.88-3.37-13.69-6.12c-2.81-2.75-4.21-6.53-4.21-11.33c0-5.84,2.07-10.34,6.21-13.52s10.01-4.77,17.62-4.77
	c3.77,0,7.32,0.28,10.64,0.83C403.96,29.02,407.02,29.85,409.83,30.96"/>
<path d="M473.97,57.61v4.99h-46.89c0.44,7.02,2.56,12.37,6.35,16.05c3.79,3.68,9.06,5.51,15.82,5.51c3.92,0,7.71-0.48,11.39-1.44
	c3.68-0.96,7.32-2.4,10.95-4.32v9.64c-3.66,1.55-7.41,2.73-11.25,3.55c-3.84,0.81-7.74,1.22-11.69,1.22
	c-9.9,0-17.74-2.88-23.52-8.65c-5.78-5.76-8.67-13.56-8.67-23.39c0-10.16,2.74-18.23,8.23-24.19c5.49-5.97,12.89-8.95,22.2-8.95
	c8.35,0,14.95,2.69,19.81,8.06C471.54,41.07,473.97,48.38,473.97,57.61 M463.78,54.62c-0.08-5.58-1.63-10.03-4.68-13.36
	c-3.05-3.33-7.09-4.99-12.11-4.99c-5.69,0-10.24,1.61-13.66,4.82c-3.42,3.21-5.39,7.74-5.9,13.58L463.78,54.62z"/>
</svg>
