<?xml version="1.0" encoding="utf-8"?>
<!-- Generator: Adobe Illustrator 23.0.4, SVG Export Plug-In . SVG Version: 6.00 Build 0)  -->
<svg version="1.1" id="Capa_1" xmlns="http://www.w3.org/2000/svg" xmlns:xlink="http://www.w3.org/1999/xlink" x="0px" y="0px"
	 viewBox="0 0 400 400" style="enable-background:new 0 0 400 400;" xml:space="preserve">
<style type="text/css">
	.st0{fill-rule:evenodd;clip-rule:evenodd;fill:#1D1C15;}
	.st1{fill:#1D1C15;}
</style>
<g>
	<path class="st0" d="M200.61,8.66C92.09,8.66,4.08,96.64,4.08,205.18c0,86.83,56.31,160.49,134.4,186.48
		c9.82,1.82,13.43-4.26,13.43-9.45c0-4.68-0.18-20.17-0.27-36.59c-54.67,11.89-66.21-23.19-66.21-23.19
		c-8.94-22.71-21.82-28.76-21.82-28.76c-17.83-12.2,1.34-11.95,1.34-11.95c19.73,1.39,30.13,20.25,30.13,20.25
		c17.53,30.04,45.97,21.36,57.19,16.34c1.76-12.7,6.86-21.37,12.48-26.28c-43.65-4.97-89.54-21.82-89.54-97.12
		c0-21.46,7.68-38.99,20.25-52.75c-2.04-4.95-8.77-24.94,1.9-52.01c0,0,16.5-5.28,54.06,20.15c15.68-4.36,32.49-6.54,49.19-6.62
		c16.7,0.08,33.53,2.26,49.23,6.62c37.51-25.43,53.99-20.15,53.99-20.15c10.7,27.07,3.97,47.06,1.93,52.01
		c12.6,13.76,20.23,31.29,20.23,52.75c0,75.48-45.97,92.1-89.74,96.97c7.05,6.1,13.33,18.06,13.33,36.39
		c0,26.3-0.23,47.46-0.23,53.93c0,5.23,3.54,11.36,13.5,9.43c78.04-26.02,134.28-99.66,134.28-186.46
		C397.13,96.64,309.14,8.66,200.61,8.66z"/>
	<path class="st1" d="M78.52,290.82c-0.43,0.98-1.97,1.27-3.37,0.6c-1.43-0.64-2.22-1.97-1.76-2.95c0.42-1,1.96-1.28,3.38-0.61
		C78.2,288.5,79.01,289.84,78.52,290.82L78.52,290.82z M76.1,289.03"/>
	<path class="st1" d="M86.48,299.7c-0.94,0.87-2.77,0.46-4.01-0.91c-1.29-1.37-1.53-3.2-0.58-4.08c0.97-0.87,2.74-0.46,4.03,0.91
		C87.21,297,87.46,298.82,86.48,299.7L86.48,299.7z M84.6,297.69"/>
	<path class="st1" d="M94.23,311.02c-1.2,0.84-3.17,0.05-4.39-1.69c-1.2-1.75-1.2-3.85,0.03-4.68c1.22-0.84,3.16-0.08,4.39,1.65
		C95.46,308.06,95.46,310.16,94.23,311.02L94.23,311.02z M94.23,311.02"/>
	<path class="st1" d="M104.84,321.95c-1.08,1.19-3.37,0.87-5.05-0.75c-1.72-1.58-2.2-3.83-1.12-5.02c1.09-1.19,3.4-0.85,5.09,0.75
		C105.47,318.51,105.99,320.78,104.84,321.95L104.84,321.95z M104.84,321.95"/>
	<path class="st1" d="M119.49,328.3c-0.48,1.54-2.69,2.24-4.91,1.58c-2.22-0.67-3.68-2.48-3.23-4.03c0.46-1.55,2.68-2.28,4.92-1.58
		C118.49,324.95,119.95,326.74,119.49,328.3L119.49,328.3z M119.49,328.3"/>
	<path class="st1" d="M135.57,329.48c0.05,1.62-1.83,2.97-4.17,2.99c-2.35,0.05-4.25-1.26-4.28-2.85c0-1.64,1.85-2.97,4.19-3.01
		C133.66,326.57,135.57,327.87,135.57,329.48L135.57,329.48z M135.57,329.48"/>
	<path class="st1" d="M150.54,326.93c0.28,1.58-1.34,3.2-3.66,3.64c-2.28,0.42-4.39-0.56-4.68-2.13c-0.28-1.62,1.37-3.24,3.65-3.66
		C148.16,324.37,150.24,325.33,150.54,326.93L150.54,326.93z M150.54,326.93"/>
</g>
</svg>
