<?xml version="1.0" encoding="utf-8"?>
<!-- Generator: Adobe Illustrator 23.0.4, SVG Export Plug-In . SVG Version: 6.00 Build 0)  -->
<svg version="1.1" id="Layer_1" xmlns="http://www.w3.org/2000/svg" xmlns:xlink="http://www.w3.org/1999/xlink" x="0px" y="0px"
	 viewBox="0 0 221 77" style="enable-background:new 0 0 221 77;" xml:space="preserve">
<style type="text/css">
	.st0{fill:#C4460D;}
	.st1{fill:#FFFFFF;}
</style>
<g>
	<g>
		<path class="st0" d="M100.04,59.94c-5.64,0-10.16-1.86-13.55-5.58c-3.4-3.72-5.09-8.55-5.09-14.51c0-6.4,1.73-11.5,5.19-15.31
			c3.46-3.81,8.16-5.71,14.12-5.71c5.49,0,9.92,1.85,13.27,5.55c3.36,3.7,5.03,8.54,5.03,14.51c0,6.49-1.72,11.62-5.16,15.4
			C110.41,58.06,105.81,59.94,100.04,59.94z M100.37,23.05c-4.18,0-7.57,1.51-10.18,4.52c-2.61,3.01-3.91,6.97-3.91,11.87
			c0,4.9,1.27,8.84,3.81,11.83c2.54,2.99,5.86,4.48,9.95,4.48c4.36,0,7.8-1.42,10.32-4.27c2.51-2.85,3.77-6.83,3.77-11.96
			c0-5.25-1.22-9.31-3.66-12.18C108.03,24.48,104.66,23.05,100.37,23.05z"/>
		<path class="st0" d="M151.27,20.47c1.13,0,2.14,0.25,3.02,0.75v-4.11c-0.81-0.33-1.91-0.5-3.3-0.5c-2.57,0-4.72,0.86-6.44,2.59
			c-1.72,1.73-2.58,4.08-2.58,7.06v4.61h-4.73h-0.13h-6.53v-4.38c0-4.01,1.59-6.02,4.77-6.02c1.13,0,2.14,0.25,3.02,0.75v-4.11
			c-0.81-0.33-1.91-0.5-3.3-0.5c-2.57,0-4.71,0.86-6.44,2.59s-2.58,4.08-2.58,7.06v4.61h-4.85v3.88h4.85v24.52h4.52V34.75h6.53h0.13
			h4.73v24.52h4.52V34.75h6.66v-3.88h-6.66v-4.38C146.5,22.47,148.09,20.47,151.27,20.47z"/>
		<path class="st0" d="M159.74,23.66c-0.81,0-1.51-0.28-2.08-0.83c-0.57-0.55-0.86-1.26-0.86-2.11c0-0.85,0.29-1.56,0.86-2.12
			c0.57-0.56,1.27-0.85,2.08-0.85c0.83,0,1.54,0.28,2.12,0.85c0.58,0.56,0.87,1.27,0.87,2.12c0,0.81-0.29,1.51-0.87,2.08
			C161.28,23.37,160.57,23.66,159.74,23.66z M161.96,59.28h-4.55V30.87h4.55V59.28z"/>
		<path class="st0" d="M187.41,57.97c-2.18,1.31-4.77,1.97-7.77,1.97c-4.05,0-7.32-1.32-9.8-3.95c-2.49-2.64-3.73-6.05-3.73-10.25
			c0-4.68,1.34-8.44,4.02-11.28c2.68-2.84,6.26-4.26,10.74-4.26c2.5,0,4.7,0.46,6.6,1.39v4.66c-2.11-1.48-4.37-2.22-6.77-2.22
			c-2.9,0-5.28,1.04-7.14,3.12c-1.86,2.08-2.79,4.81-2.79,8.2c0,3.33,0.87,5.96,2.62,7.88c1.75,1.92,4.09,2.88,7.03,2.88
			c2.48,0,4.81-0.82,6.99-2.47V57.97z"/>
		<path class="st0" d="M215.25,46.21h-20.06c0.07,3.16,0.93,5.6,2.55,7.32c1.63,1.72,3.87,2.58,6.71,2.58c3.2,0,6.14-1.05,8.82-3.16
			v4.27c-2.5,1.81-5.8,2.72-9.9,2.72c-4.01,0-7.17-1.29-9.46-3.87c-2.29-2.58-3.44-6.21-3.44-10.89c0-4.42,1.25-8.02,3.76-10.81
			c2.51-2.78,5.62-4.17,9.34-4.17s6.59,1.2,8.63,3.61c2.03,2.4,3.05,5.74,3.05,10.02V46.21z M210.59,42.35
			c-0.02-2.63-0.65-4.67-1.9-6.13c-1.25-1.46-2.98-2.19-5.2-2.19c-2.15,0-3.97,0.77-5.46,2.3c-1.5,1.53-2.42,3.54-2.77,6.02H210.59z
			"/>
	</g>
	<g>
		<polygon class="st0" points="6.33,59.45 42.28,72.31 62.21,65.88 62.21,12.2 42.28,5.49 6.33,19.36 		"/>
		<polygon class="st1" points="6.33,59.46 19.21,54.09 19.21,22.51 42.5,17.14 42.5,64.17 		"/>
	</g>
</g>
</svg>
