<?xml version="1.0" encoding="utf-8"?>
<!-- Generator: Adobe Illustrator 23.0.4, SVG Export Plug-In . SVG Version: 6.00 Build 0)  -->
<svg version="1.1"
	 id="svg2" xmlns:cc="http://creativecommons.org/ns#" xmlns:dc="http://purl.org/dc/elements/1.1/" xmlns:rdf="http://www.w3.org/1999/02/22-rdf-syntax-ns#" xmlns:svg="http://www.w3.org/2000/svg"
	 xmlns="http://www.w3.org/2000/svg" xmlns:xlink="http://www.w3.org/1999/xlink" x="0px" y="0px" viewBox="0 0 3890 2168"
	 style="enable-background:new 0 0 3890 2168;" xml:space="preserve">
<style type="text/css">
	.st0{fill:#CCCCCC;}
	.st1{fill:none;stroke:#CCCCCC;stroke-width:12;stroke-linecap:round;stroke-linejoin:round;}
	.st2{fill:none;stroke:#CCCCCC;stroke-width:29;stroke-linecap:round;stroke-linejoin:round;}
	.st3{fill:#6C78AF;}
	.st4{fill:#F89C0E;}
</style>
<g id="g5">
	<path id="path14" class="st0" d="M2889.39,6.35l-2.04-4.07c-1.01-1.01-2.03-2.04-4.06-2.04l-4.08,1.03
		c-2.03,2.03-3.05,3.05-3.05,5.08l-86.52,1566.35l13.24-2.04l83.46-1523.7l99.75,163.88h-1.02
		c75.32,221.88,106.87,458.02,94.66,708.41l6.11,9.16l98.73,175.06l6.1,6.11c151.66,133.34,321.63,222.91,509.94,268.71l45.8,74.31
		l6.11,2.03l1.02-2.03L2887.35,35.77l2.04-29.52"/>
	<path id="path18" class="st0" d="M2858.86,559.03c106.87,218.84,145.54,549.63,117.05,992.39l416.29-50.89L2858.86,559.03z"/>
	<path id="path20" class="st0" d="M3807.48,1520.88c42.74-5.09,70.22-14.25,82.44-27.48l-2178.16,265.66h-1.02
		c1.02,90.59,41.73,161.84,121.12,212.72c21.37,15.27,43.77,26.46,64.12,33.59c19.34-22.39,40.72-38.68,66.17-53.95h1.01
		c228-138.42,566.94-159.8,1014.78-65.14l5.09,1.01c48.86,10.18,97.71,22.4,143.52,36.65c13.22,2.04,24.42-2.04,33.58-10.18
		c16.29-12.21,36.65-21.38,64.13-27.48v-1.02c72.27-128.25,169.97-222.91,292.12-285
		C3600.86,1558.55,3698.57,1531.06,3807.48,1520.88"/>
	<path id="path22" class="st0" d="M2761.15,1560.58L2860.89,31.8c-144.53,557.77-376.6,1078.9-695.18,1562.37L2761.15,1560.58"/>
	<path id="path24" class="st0" d="M2200.32,329.01l-4.07-2.04l-4.07,1.02l-2.04,5.08l-82.44,1323.19l12.21-1.02l82.45-1322.17
		L2200.32,329.01"/>
	<path id="path26" class="st0" d="M2084.29,1627.76L2084.29,1627.76l87.53-1290.61l-461.08,1330.31L2084.29,1627.76"/>
</g>
<g id="g13">
	<path id="path34" class="st1" d="M2102.61,2057.95c-115.02,54.96-198.48,64.12-251.41,30.54
		c-52.93-35.62-134.36-27.48-244.28,24.42"/>
	<path id="path36" class="st1" d="M2372.33,2066.09c-21.37-7.12-44.78-12.21-69.21-14.25c-49.87-4.07-109.93,15.27-180.16,57
		c-70.23,42.75-154.71,59.04-255.48,49.87"/>
	<path id="path38" class="st1" d="M3000.34,1962.27c-484.5-99.74-833.61-76.34-1047.35,71.25"/>
	<path id="path40" class="st1" d="M3305.69,2010.12c-21.38-8.15-44.79-13.23-69.22-14.25c-49.87-4.07-109.92,15.27-180.15,57
		c-70.23,41.73-154.71,58.01-255.48,49.87"/>
	<path id="path42" class="st2" d="M2655.29,341.22c-49.88-30.54-101.78-22.39-155.73,25.44c-46.82-47.83-95.67-55.98-146.57-25.44"
		/>
	<path id="path44" class="st2" d="M2542.31,170.22c-50.89-30.53-100.76-18.32-151.66,36.64c-49.88-54.96-100.76-67.17-151.66-36.64"
		/>
</g>
<g id="g33">
	<path id="path66" class="st3" d="M56.77,1763.86h134.91c40.54,0,70.31,11.54,89.3,34.61c18.99,23.08,25.15,55.24,18.48,96.49
		c-2.73,16.92-7.61,32.45-14.64,46.59c-7.03,14.14-16.31,27.07-27.85,38.76c-13.72,14.07-29.07,24.15-46.08,30.23
		c-17,6.08-38.75,9.12-65.23,9.12H85.59l-14.95,92.52H0.47L56.77,1763.86L56.77,1763.86z M118.02,1818.97l-23.61,146.1h42.68
		c28.29,0,49.25-5.77,62.9-17.34c13.64-11.56,22.63-30.81,26.99-57.74c4.2-25.97,1.76-44.29-7.3-54.99
		c-9.06-10.69-26.92-16.04-53.58-16.04H118.02"/>
	<path id="path68" class="st3" d="M378.24,1671.35h69.64l-14.95,92.52h61.95c38.99,0,66.01,7.39,81.08,22.16
		c15.07,14.78,19.95,38.58,14.64,71.43l-26.22,162.22h-70.69l24.95-154.39c2.84-17.55,1.46-29.49-4.12-35.81
		c-5.59-6.32-17.28-9.49-35.07-9.49h-55.58l-32.27,199.69h-69.65L378.24,1671.35"/>
	<path id="path70" class="st3" d="M666.44,1763.86h134.91c40.55,0,70.31,11.54,89.3,34.61c18.99,23.08,25.15,55.24,18.49,96.49
		c-2.73,16.92-7.62,32.45-14.63,46.59c-7.03,14.14-16.32,27.07-27.85,38.76c-13.72,14.07-29.08,24.15-46.08,30.23
		c-17,6.08-38.74,9.12-65.24,9.12h-60.08l-14.95,92.52h-70.16L666.44,1763.86L666.44,1763.86z M727.7,1818.97l-23.61,146.1h42.68
		c28.29,0,49.25-5.77,62.89-17.34c13.64-11.56,22.64-30.81,27-57.74c4.19-25.97,1.76-44.29-7.3-54.99
		c-9.06-10.69-26.92-16.04-53.57-16.04H727.7"/>
</g>
<g id="g65">
	<path id="path72" class="st4" d="M1027.75,1597.32h134.95l59.28,323.87l163.97-323.87h134.43l-68.2,422.05h-90.1l60.56-328.74
		l-165.33,328.74h-97.63l-62.09-332.19l-44.47,332.19h-93.58L1027.75,1597.32"/>
	<path id="path74" class="st4" d="M1682.33,1951.08h68.13l39.05-241.66h84.69l-48.75,301.63c-6.62,41.01-21.44,71.38-44.45,91.12
		c-23.01,19.73-54.93,29.6-95.75,29.6h-166.08l10.15-62.79h151.5c16.26,0,29.36-3.8,39.32-11.39c9.94-7.6,16.1-18.61,18.43-33.03
		l0.84-5.19h-74.97c-47.95,0-80.65-9.14-98.09-27.42c-17.45-18.28-22.72-48.76-15.83-91.45l30.89-191.08h83.74l-29.86,184.76
		c-3.77,23.37-2.64,38.7,3.43,45.98C1644.8,1947.44,1659.33,1951.08,1682.33,1951.08"/>
	<path id="path76" class="st4" d="M2102.3,1597.32h97.52l118.19,422.06h-102.27l-23.91-100.46h-189.96l-55.19,100.46h-97.53
		L2102.3,1597.32L2102.3,1597.32z M2133.96,1681.13l-90.18,162.44h130.22L2133.96,1681.13"/>
	<path id="path78" class="st4" d="M2637.3,2019.38h-162.7c-49.16,0-85.27-13.98-108.32-41.94c-23.04-27.96-30.51-66.93-22.43-116.91
		c3.32-20.49,9.23-39.31,17.75-56.45c8.52-17.14,19.77-32.8,33.76-46.97c16.63-17.04,35.31-29.25,56.03-36.62
		c20.72-7.38,47.04-11.06,78.96-11.06h72.66l18.11-112.1h84.39L2637.3,2019.38L2637.3,2019.38z M2563.67,1952.92l28.57-176.72
		h-51.22c-34.35,0-59.84,6.95-76.49,20.83c-16.62,13.89-27.57,37.03-32.8,69.4c-5.08,31.42-2.08,53.69,9.01,66.81
		c11.08,13.12,32.71,19.68,64.86,19.68L2563.67,1952.92"/>
	<path id="path80" class="st4" d="M2761.02,1709.42h325.23c47.16,0,79.7,8.91,97.63,26.7c17.91,17.8,23.65,46.7,17.19,86.7
		l-31.77,196.56h-85.33l30.04-185.93c3.69-22.79,2.56-37.83-3.38-45.12c-5.97-7.28-20.02-10.92-42.18-10.92h-47.51l-39.11,241.96
		h-86.6l39.11-241.96h-98.98l-39.11,241.96h-85.33L2761.02,1709.42"/>
	<path id="path82" class="st4" d="M3389.65,1674.2h-88.82l12.42-76.88h88.82L3389.65,1674.2z M3333.86,2019.38h-88.82l50.09-309.96
		h88.82L3333.86,2019.38"/>
	<path id="path84" class="st4" d="M3457.21,1709.42h159.35c48.16,0,81.13,8.76,98.91,26.27c17.78,17.52,23.39,46.56,16.84,87.13
		l-31.76,196.55h-84.71l30.15-186.5c3.74-23.18,2.45-38.22-3.87-45.11c-6.32-6.9-20.69-10.35-43.09-10.35h-68.12l-39.11,241.96
		h-84.69L3457.21,1709.42"/>
</g>
</svg>
