<?xml version="1.0" encoding="utf-8"?>
<!-- Generator: Adobe Illustrator 23.0.4, SVG Export Plug-In . SVG Version: 6.00 Build 0)  -->
<svg version="1.1" id="Capa_1" xmlns="http://www.w3.org/2000/svg" xmlns:xlink="http://www.w3.org/1999/xlink" x="0px" y="0px"
	 viewBox="0 0 105 49" style="enable-background:new 0 0 105 49;" xml:space="preserve">
<style type="text/css">
	.st0{fill:#007ACC;}
</style>
<symbol  id="A" viewBox="-51.59 -23.54 103.18 47.07">
	<path class="st0" d="M-47.49,23.33h-0.82l-3.28-9h0.93l2.56,7.2l0.12,0.4c0,0.14,0.06,0.28,0.1,0.43c0.02-0.13,0.05-0.26,0.09-0.39
		c0-0.14,0.08-0.3,0.14-0.46l2.66-7.2h0.9L-47.49,23.33z M-42.45,15.26c-0.15,0-0.29-0.06-0.4-0.16c-0.1-0.12-0.15-0.27-0.14-0.43
		c0-0.15,0.06-0.3,0.17-0.4c0.11-0.11,0.25-0.17,0.4-0.17c0.08-0.01,0.15-0.01,0.23,0c0.07,0.03,0.13,0.07,0.19,0.12
		c0.05,0.05,0.09,0.11,0.12,0.18c0.03,0.07,0.05,0.15,0.05,0.23c0.01,0.08,0.01,0.15,0,0.23c-0.03,0.07-0.08,0.13-0.13,0.18
		c-0.05,0.06-0.12,0.1-0.19,0.12C-42.24,15.23-42.34,15.26-42.45,15.26z M-42.85,23.33v-6.44h0.86v6.44H-42.85z M-40.33,22.17
		c0.25,0.2,0.54,0.35,0.84,0.45c0.15,0.06,0.3,0.1,0.46,0.12c0.14,0.01,0.29,0.01,0.43,0c0.96,0,1.44-0.36,1.44-1.08
		c0-0.15-0.03-0.29-0.1-0.42c-0.08-0.13-0.18-0.24-0.29-0.33c-0.14-0.1-0.28-0.18-0.44-0.24l-0.59-0.27
		c-0.27-0.1-0.52-0.23-0.77-0.37c-0.19-0.11-0.37-0.25-0.53-0.41c-0.13-0.14-0.24-0.31-0.31-0.49c-0.07-0.2-0.1-0.4-0.1-0.61
		c-0.01-0.27,0.06-0.53,0.19-0.76c0.12-0.22,0.29-0.42,0.5-0.57c0.22-0.16,0.46-0.27,0.72-0.35c0.28-0.08,0.58-0.12,0.87-0.12
		c0.5-0.01,1,0.09,1.46,0.31v0.85c-0.46-0.31-1.01-0.47-1.56-0.47c-0.19,0-0.37,0.03-0.55,0.08c-0.15,0.04-0.3,0.11-0.43,0.21
		c-0.11,0.1-0.2,0.21-0.27,0.33c-0.06,0.13-0.1,0.28-0.1,0.43c0,0.14,0.03,0.29,0.08,0.42c0.05,0.12,0.13,0.23,0.23,0.32
		c0.13,0.11,0.27,0.2,0.42,0.28c0.17,0.1,0.38,0.18,0.62,0.28l0.8,0.37c0.21,0.11,0.39,0.25,0.56,0.41c0.15,0.13,0.26,0.3,0.33,0.48
		c0.07,0.2,0.11,0.41,0.11,0.62c0.01,0.27-0.06,0.53-0.18,0.77c-0.12,0.23-0.29,0.43-0.5,0.58c-0.22,0.16-0.48,0.28-0.74,0.35
		c-0.31,0.08-0.62,0.12-0.94,0.12c-0.57,0.02-1.14-0.13-1.64-0.41L-40.33,22.17z M-30.53,23.33v-1.1c-0.36,0.78-1.14,1.27-2,1.25
		c-1.53,0-2.3-0.94-2.3-2.8v-3.8h0.8v3.63c-0.05,0.6,0.1,1.2,0.41,1.71c0.3,0.39,0.77,0.6,1.26,0.56c0.26,0,0.52-0.05,0.76-0.16
		c0.23-0.11,0.43-0.27,0.59-0.46c0.17-0.21,0.3-0.45,0.39-0.7c0.09-0.29,0.14-0.59,0.13-0.9v-3.67h0.8v6.44H-30.53z M-23.93,23.33
		v-1.14c-0.19,0.41-0.49,0.75-0.86,1c-0.37,0.23-0.8,0.34-1.23,0.34c-0.29,0-0.57-0.04-0.84-0.13c-0.23-0.08-0.45-0.21-0.63-0.38
		c-0.18-0.16-0.32-0.36-0.41-0.58c-0.09-0.24-0.14-0.49-0.14-0.75c-0.03-0.52,0.17-1.02,0.54-1.39c0.46-0.39,1.04-0.63,1.64-0.68
		l2-0.28c0-1.24-0.48-1.86-1.44-1.86c-0.77,0.01-1.51,0.31-2.08,0.83v-0.88c0.14-0.1,0.29-0.19,0.45-0.26
		c0.17-0.08,0.35-0.15,0.54-0.2c0.19-0.06,0.38-0.1,0.58-0.14c0.19-0.01,0.39-0.01,0.58,0c0.6-0.04,1.2,0.18,1.63,0.6
		c0.4,0.51,0.6,1.15,0.55,1.8v4.2L-23.93,23.33z M-25.59,20.19c-0.25,0.04-0.5,0.09-0.74,0.16c-0.18,0.05-0.35,0.14-0.51,0.25
		c-0.13,0.11-0.23,0.24-0.29,0.4c-0.07,0.18-0.11,0.38-0.1,0.58c0,0.16,0.03,0.33,0.09,0.48c0.06,0.15,0.15,0.28,0.27,0.38
		c0.12,0.11,0.26,0.2,0.42,0.25c0.18,0.06,0.37,0.09,0.56,0.09c0.27,0,0.54-0.06,0.79-0.17c0.23-0.11,0.44-0.26,0.62-0.45
		c0.18-0.2,0.32-0.44,0.41-0.69c0.09-0.28,0.14-0.58,0.14-0.88v-0.63L-25.59,20.19z M-21.19,23.33v-9.54h0.8v9.54H-21.19z
		 M-14.99,22.01c0.16,0.11,0.33,0.21,0.5,0.3c0.18,0.09,0.37,0.17,0.56,0.23c0.2,0.06,0.4,0.1,0.58,0.14c0.18,0.01,0.37,0.01,0.55,0
		c0.54,0.04,1.08-0.1,1.54-0.39c0.34-0.28,0.53-0.7,0.5-1.14c0.01-0.22-0.03-0.43-0.11-0.63c-0.09-0.19-0.22-0.36-0.38-0.5
		c-0.19-0.18-0.4-0.33-0.63-0.46l-0.9-0.52l-1-0.6c-0.24-0.16-0.47-0.36-0.67-0.57c-0.17-0.19-0.29-0.4-0.38-0.64
		c-0.09-0.25-0.13-0.51-0.13-0.77c-0.01-0.35,0.07-0.69,0.24-1c0.15-0.29,0.37-0.55,0.63-0.74c0.28-0.21,0.59-0.37,0.92-0.47
		c0.39-0.09,0.79-0.13,1.19-0.1c0.61-0.02,1.21,0.08,1.78,0.29v0.93c-0.57-0.32-1.22-0.48-1.88-0.46c-0.25,0-0.51,0.03-0.75,0.1
		c-0.22,0.06-0.44,0.15-0.63,0.28c-0.17,0.13-0.31,0.29-0.42,0.47c-0.1,0.2-0.15,0.42-0.15,0.65c-0.01,0.21,0.03,0.42,0.1,0.61
		c0.08,0.18,0.19,0.35,0.34,0.48c0.18,0.17,0.38,0.32,0.6,0.45l0.9,0.5c0.34,0.18,0.68,0.37,1,0.59c0.26,0.17,0.49,0.37,0.7,0.6
		c0.18,0.19,0.32,0.41,0.42,0.66c0.09,0.25,0.14,0.51,0.14,0.77c0,0.35-0.07,0.69-0.22,1c-0.14,0.29-0.36,0.55-0.62,0.74
		c-0.28,0.21-0.6,0.36-0.94,0.45c-0.39,0.1-0.8,0.15-1.2,0.15c-0.17,0.01-0.34,0.01-0.51,0c-0.2-0.02-0.4-0.05-0.6-0.1
		c-0.19-0.04-0.38-0.09-0.57-0.15c-0.16-0.05-0.31-0.12-0.45-0.2L-14.99,22.01z M-5.79,23.25c-0.28,0.14-0.59,0.21-0.91,0.21
		c-1.04,0-1.56-0.6-1.56-1.8v-4.07h-1.13v-0.7h1.13v-1.62l0.8-0.27v1.9h1.66v0.7h-1.66v3.94c-0.04,0.35,0.04,0.7,0.21,1
		c0.18,0.21,0.45,0.32,0.72,0.29c0.26,0,0.51-0.08,0.73-0.23L-5.79,23.25z M-0.26,23.33v-1.1c-0.36,0.78-1.14,1.27-2,1.25
		c-1.53,0-2.3-0.94-2.3-2.8v-3.8h0.8v3.63c-0.04,0.6,0.1,1.2,0.41,1.71c0.3,0.38,0.77,0.59,1.26,0.56c0.26,0,0.52-0.05,0.76-0.16
		c0.23-0.11,0.43-0.26,0.59-0.46c0.18-0.2,0.31-0.44,0.39-0.7c0.09-0.29,0.14-0.59,0.14-0.9v-3.67h0.8v6.44L-0.26,23.33z
		 M7.14,23.33v-1.14c-0.21,0.4-0.53,0.72-0.92,0.94c-0.41,0.23-0.88,0.35-1.35,0.34c-0.38,0-0.75-0.07-1.09-0.23
		c-0.33-0.14-0.62-0.36-0.85-0.64c-0.24-0.29-0.43-0.63-0.54-1c-0.14-0.44-0.2-0.89-0.2-1.35c-0.01-0.48,0.06-0.96,0.21-1.42
		c0.13-0.43,0.34-0.83,0.62-1.17c0.25-0.31,0.57-0.55,0.93-0.72c0.38-0.17,0.79-0.26,1.21-0.25c0.83-0.05,1.61,0.38,2,1.11v-4h0.8
		v9.54L7.14,23.33z M7.14,19.43c0-0.26-0.04-0.52-0.12-0.77c-0.09-0.24-0.23-0.45-0.41-0.63c-0.18-0.18-0.39-0.33-0.62-0.43
		c-0.25-0.11-0.52-0.16-0.79-0.16c-0.3,0-0.6,0.06-0.88,0.19c-0.27,0.13-0.51,0.32-0.69,0.55c-0.2,0.26-0.36,0.55-0.45,0.86
		c-0.11,0.37-0.17,0.76-0.17,1.15C3,20.56,3.05,20.93,3.16,21.28c0.08,0.3,0.22,0.58,0.41,0.82c0.35,0.44,0.89,0.7,1.46,0.69
		c0.31,0,0.61-0.06,0.89-0.18C6.43,22.38,6.83,21.94,7,21.4c0.1-0.28,0.15-0.58,0.15-0.88L7.14,19.43z M10.41,15.26
		c-0.15,0-0.29-0.06-0.4-0.16C9.89,15,9.83,14.84,9.84,14.68c-0.01-0.15,0.06-0.3,0.17-0.4c0.1-0.11,0.25-0.17,0.4-0.17
		c0.07-0.01,0.15-0.01,0.22,0c0.07,0.03,0.14,0.07,0.19,0.12c0.05,0.05,0.1,0.11,0.13,0.18c0.05,0.15,0.05,0.31,0,0.46
		c-0.03,0.07-0.07,0.13-0.13,0.18c-0.05,0.06-0.11,0.1-0.18,0.12C10.57,15.22,10.49,15.25,10.41,15.26z M10.01,23.33v-6.44h0.8v6.44
		H10.01z M15.53,23.49c-0.44,0.01-0.88-0.07-1.29-0.24c-0.38-0.15-0.72-0.38-1-0.68c-0.27-0.29-0.48-0.63-0.62-1
		c-0.14-0.44-0.22-0.9-0.21-1.36c-0.01-0.49,0.07-0.98,0.23-1.44c0.14-0.41,0.37-0.78,0.67-1.09c0.28-0.3,0.62-0.53,1-0.68
		c0.42-0.16,0.87-0.24,1.32-0.23c0.43-0.01,0.86,0.07,1.26,0.23c0.38,0.14,0.72,0.36,1,0.66c0.25,0.3,0.44,0.65,0.55,1.02
		c0.28,0.91,0.28,1.88,0,2.79c-0.14,0.39-0.35,0.75-0.62,1.06c-0.28,0.3-0.62,0.54-1,0.69C16.41,23.4,15.97,23.5,15.53,23.49z
		 M15.59,17.44c-0.34-0.01-0.68,0.06-1,0.19c-0.28,0.12-0.53,0.3-0.73,0.53c-0.21,0.25-0.37,0.54-0.47,0.85
		c-0.11,0.37-0.17,0.76-0.16,1.15c-0.01,0.37,0.05,0.74,0.16,1.09c0.1,0.3,0.26,0.59,0.47,0.83c0.19,0.23,0.44,0.41,0.72,0.53
		c0.32,0.13,0.66,0.2,1,0.19c0.34,0.01,0.68-0.05,1-0.18c0.27-0.12,0.52-0.3,0.71-0.53c0.2-0.24,0.35-0.52,0.43-0.83
		c0.1-0.37,0.16-0.75,0.15-1.14c0.05-0.71-0.15-1.42-0.58-2C16.87,17.64,16.23,17.38,15.59,17.44z M30.01,22.99
		c-0.75,0.34-1.57,0.51-2.39,0.49c-0.59,0.01-1.18-0.1-1.73-0.33c-0.5-0.22-0.96-0.54-1.33-0.94c-0.38-0.41-0.67-0.89-0.85-1.42
		c-0.2-0.58-0.31-1.19-0.3-1.8c0-0.65,0.1-1.29,0.32-1.9c0.2-0.57,0.51-1.09,0.91-1.54c0.4-0.43,0.89-0.77,1.43-1
		c0.59-0.26,1.23-0.38,1.88-0.37c0.7-0.01,1.4,0.11,2.06,0.35v0.9c-0.64-0.32-1.35-0.48-2.07-0.48c-0.54-0.01-1.07,0.09-1.56,0.3
		c-0.44,0.19-0.83,0.48-1.14,0.84c-0.32,0.37-0.56,0.8-0.71,1.27c-0.17,0.52-0.25,1.06-0.25,1.6c0,0.5,0.07,0.99,0.22,1.47
		c0.14,0.44,0.36,0.84,0.65,1.2c0.29,0.35,0.66,0.63,1.08,0.82c0.47,0.21,0.98,0.31,1.49,0.3c0.8,0.01,1.59-0.18,2.29-0.56V22.99z
		 M34.41,23.49c-0.44,0.01-0.87-0.08-1.28-0.24c-0.38-0.15-0.72-0.38-1-0.68c-0.27-0.29-0.48-0.63-0.62-1
		c-0.14-0.44-0.22-0.9-0.21-1.36c-0.01-0.49,0.07-0.98,0.22-1.44c0.15-0.41,0.38-0.78,0.68-1.09c0.28-0.3,0.62-0.53,1-0.68
		c0.42-0.16,0.87-0.24,1.32-0.23c0.43-0.01,0.85,0.07,1.25,0.23c0.38,0.13,0.73,0.36,1,0.66c0.27,0.31,0.47,0.67,0.6,1.06
		c0.15,0.46,0.22,0.93,0.21,1.41c0.01,0.47-0.07,0.94-0.22,1.38c-0.13,0.39-0.34,0.75-0.62,1.06c-0.28,0.3-0.62,0.54-1,0.69
		C35.32,23.44,34.86,23.51,34.41,23.49z M34.48,17.44c-0.34-0.01-0.68,0.06-1,0.19c-0.28,0.12-0.53,0.3-0.73,0.53
		c-0.21,0.25-0.37,0.54-0.47,0.85c-0.11,0.37-0.17,0.76-0.16,1.15c-0.01,0.37,0.05,0.74,0.16,1.09c0.1,0.3,0.25,0.59,0.46,0.83
		c0.2,0.23,0.45,0.41,0.73,0.53c0.61,0.25,1.3,0.25,1.91,0c0.27-0.12,0.51-0.3,0.7-0.53c0.21-0.24,0.36-0.52,0.44-0.83
		c0.11-0.37,0.15-0.76,0.15-1.14c0.05-0.71-0.15-1.42-0.58-2C35.68,17.66,35.09,17.41,34.48,17.44z M43.68,23.34v-1.15
		c-0.21,0.4-0.52,0.72-0.91,0.94c-0.76,0.41-1.66,0.45-2.45,0.11c-0.33-0.14-0.62-0.36-0.85-0.64c-0.24-0.3-0.42-0.64-0.54-1
		c-0.13-0.44-0.2-0.89-0.19-1.35c-0.01-0.48,0.06-0.96,0.21-1.42c0.13-0.41,0.33-0.78,0.6-1.11c0.25-0.31,0.57-0.56,0.93-0.72
		c0.38-0.17,0.79-0.26,1.21-0.25c0.83-0.06,1.61,0.38,2,1.11v-4.07h0.8v9.54L43.68,23.34z M43.68,19.44c0-0.27-0.05-0.54-0.15-0.79
		c-0.09-0.23-0.23-0.45-0.4-0.63c-0.18-0.18-0.39-0.33-0.62-0.43c-0.25-0.11-0.53-0.16-0.8-0.16c-0.3,0-0.6,0.07-0.88,0.19
		c-0.26,0.13-0.5,0.32-0.68,0.55c-0.21,0.25-0.36,0.55-0.45,0.86c-0.11,0.38-0.17,0.77-0.16,1.16c0,0.37,0.04,0.73,0.14,1.09
		c0.08,0.3,0.23,0.58,0.42,0.82c0.17,0.22,0.38,0.39,0.63,0.51c0.26,0.12,0.54,0.18,0.83,0.18c0.3,0,0.6-0.06,0.88-0.18
		c0.25-0.12,0.48-0.28,0.67-0.48c0.18-0.22,0.33-0.46,0.42-0.73c0.1-0.28,0.15-0.58,0.15-0.88L43.68,19.44z M46.94,20.26
		c0,0.36,0.05,0.72,0.16,1.06c0.08,0.29,0.23,0.57,0.43,0.8c0.19,0.22,0.42,0.39,0.69,0.5c0.29,0.12,0.6,0.19,0.91,0.18
		c0.75-0.01,1.48-0.28,2.06-0.76v0.8c-0.66,0.45-1.44,0.68-2.24,0.66c-0.4,0-0.8-0.07-1.17-0.23c-0.35-0.14-0.66-0.37-0.9-0.66
		c-0.26-0.31-0.46-0.67-0.58-1.06c-0.14-0.46-0.21-0.95-0.2-1.43c0-0.46,0.07-0.91,0.22-1.34c0.14-0.39,0.34-0.75,0.61-1.06
		c0.26-0.3,0.57-0.54,0.93-0.71c0.37-0.17,0.77-0.26,1.17-0.25c0.38-0.01,0.75,0.06,1.1,0.21c0.31,0.14,0.58,0.35,0.8,0.62
		c0.23,0.3,0.4,0.64,0.49,1c0.12,0.42,0.18,0.86,0.17,1.3v0.4L46.94,20.26z M50.76,19.56c0.03-0.56-0.14-1.11-0.48-1.56
		c-0.31-0.38-0.78-0.58-1.27-0.56c-0.26,0-0.52,0.05-0.76,0.15c-0.23,0.1-0.44,0.24-0.61,0.42c-0.18,0.19-0.33,0.42-0.44,0.66
		c-0.12,0.28-0.21,0.58-0.24,0.89L50.76,19.56z M8.21-23.54V4.59l-24.57-3.65L8.21,9.21l8.2-3.4v-25.94L8.21-23.54z M-0.39-18.74
		l-7.53,7.42l-4.53-3.4l-1.86,0.62l4.6,4.56l-4.6,4.56l1.86,0.62l4.53-3.4l7.53,7.46l4.5-1.92v-14.59L-0.39-18.74z M-0.39-13.44v7.8
		l-5.18-3.9L-0.39-13.44z"/>
</symbol>
<use xlink:href="#A"  width="103.18" height="47.07" x="-51.59" y="-23.54" transform="matrix(1.0176 0 0 1.0176 53 25)" style="overflow:visible;"/>
</svg>
