<?xml version="1.0" encoding="utf-8"?>
<!-- Generator: Adobe Illustrator 23.0.4, SVG Export Plug-In . SVG Version: 6.00 Build 0)  -->
<svg version="1.1" id="Layer_1" xmlns="http://www.w3.org/2000/svg" xmlns:xlink="http://www.w3.org/1999/xlink" x="0px" y="0px"
	 viewBox="0 0 372.46 636.23" style="enable-background:new 0 0 372.46 636.23;" xml:space="preserve">
<style type="text/css">
	.st0{fill:#C13127;stroke:#C13127;stroke-width:0.0938;stroke-miterlimit:10;}
	.st1{fill:#4470B1;stroke:#4470B1;stroke-width:0.0938;stroke-miterlimit:10;}
</style>
<path class="st0" d="M214.58,22.53c9.4,10.7,12.5,26,9.8,39.8c-2.9,15.5-11.5,29.2-21.6,41c-8.1,9.5-17.4,17.9-27.1,25.7
	c-11.3,9.1-22.4,18.9-29.5,31.7c-6,10.4-7.4,23.2-3.3,34.5c6.7,19.4,22.3,33.8,30.8,52.1c-9.4-8.3-18.6-16.9-27.2-26
	c-9-9.6-17.5-19.8-23.1-31.8c-3.8-8.4-5.5-18.2-2.6-27.1c2.9-9.1,9.4-16.4,15.9-23.2c18.1-18.1,40.4-31.4,58.1-49.8
	c9.8-10.1,17.9-22.2,20.7-36.1C217.78,43.13,216.68,32.63,214.58,22.53L214.58,22.53z"/>
<path class="st0" d="M199.78,136.43c19.4-14.3,42.1-23.4,65.1-30c-18.2,11.6-37.2,22.2-52.9,37.1c-5.7,5.5-11.1,11.8-13.6,19.5
	c-1.9,5.7-1.1,12,1.2,17.4c4.2,9.6,11.3,17.4,16.7,26.2c4.6,7.5,5.4,17.1,1.9,25.2c-5.3,11.9-15.7,20.6-26.5,27.5
	c-1.4,0.8-2.6,2.3-4.3,2.5c7.2-6.5,12.8-15.7,12.6-25.6c-0.2-7.4-4.3-13.9-9.1-19.2c-9.9-11.8-18.2-26.8-16.5-42.7
	C176.08,158.43,187.47,145.63,199.78,136.43L199.78,136.43z"/>
<path class="st1" d="M268.58,252.03c4.2-5.1,10.9-6.4,17-7.2c10.6-1.4,21.9,1.3,29.9,8.6c6.6,5.9,10.3,15.1,8.9,24
	c-1.5,10.3-8.4,18.9-16.2,25.4c-14.1,11.3-31.5,17.9-48.9,22.3c1-1.1,2.1-2.1,3.4-2.9c13.2-7.1,26.3-15.4,36-27
	c5.9-7.2,10.5-16.6,8.6-26.1c-2-11-12.7-19-23.6-19.6C278.47,249.03,273.58,251.03,268.58,252.03L268.58,252.03z"/>
<path class="st1" d="M67.58,261.13c18.4-7.9,38.4-13,58.5-12.7c-11.7,3.4-23.7,6.3-34.7,11.5c-2.6,1.4-5.6,2.7-7.1,5.4
	c-0.8,2.1,1.4,3.5,3,4.2c6.8,2.8,14.3,3.2,21.6,3.9c25.6,1.7,51.3,0.7,76.8-0.9c25.2-1.6,50.2-5,75.1-9c-5.5,2.6-11.1,5.2-16.2,8.5
	c-2.6,1.8-5.8,2.3-8.7,3c-30.6,6.8-62,8.9-93.2,9.4c-12.1,0.1-24.1-0.1-36.1-0.9c-13.4-0.9-26.9-1.9-40-5.4c-3.8-1.1-7.8-2.3-10.8-5
	c-1.5-1.2-1.5-3.6-0.2-5C58.88,264.73,63.48,263.13,67.58,261.13L67.58,261.13z"/>
<path class="st1" d="M91.18,303.83c5.2-4.1,11.4-6.4,17.6-8.6c-2,2.4-4.8,4.7-5,8c-0.1,2.1,1.6,3.7,3.3,4.7c3.3,1.7,7,2.3,10.7,2.8
	c19.2,2,38.6,3.1,58,1.8c17.7-0.9,35.3-3.8,52.8-6.9c4.8,4.5,10.5,7.6,16.5,10.3c-21.1,6.2-42.8,9.8-64.6,11.5
	c-20.6,1.4-41.5,1.3-62-2c-8.1-1.5-16.4-3.2-23.8-7c-3-1.6-6.4-3.7-7.3-7.2C86.78,308.23,88.98,305.53,91.18,303.83L91.18,303.83z"
	/>
<path class="st1" d="M102.78,347.43c4.6-3.7,10.3-5.6,15.9-7.2c-1.8,1.7-5,3.8-3.6,6.7c2.7,3.5,7.7,3.9,11.7,4.8
	c16.9,2.1,34,3.5,50.9,2.2c12.8-0.8,25.4-3.1,37.9-5.3c7.2,4.2,14.7,7.8,22.4,11c-11.8,5.3-24.5,8.7-37.2,11.1
	c-21.4,3.8-43.5,4.3-65,0.9c-9.5-1.7-19.2-3.9-27.8-8.6c-3.3-1.9-6.8-4.1-8.2-7.8C98.68,352.33,100.48,349.23,102.78,347.43
	L102.78,347.43z"/>
<path class="st1" d="M47.28,375.73c9.2-3.1,18.7-5.6,28.4-5.9c3.9-0.1,7.9,0.1,11.3,2.1c-11.6,0.7-23.2,3.6-33.6,8.9
	c-2.3,1.3-4.9,2.8-5.8,5.5c0,3.1,3.5,4.1,5.8,5.1c14.5,5.4,30,7.1,45.2,8.7c45.3,3.8,90.9,2.8,136.2-1.3c17.1-1.9,34.3-3.8,50.9-8.5
	c5.3-1.8,11.3-3.6,14.8-8.3c2.1-2.8,0.7-6.3-1.4-8.7c3.4,1.9,8.2,4.3,7.5,8.9c-1.3,4.8-6.2,7.3-10.2,9.6
	c-12.8,6.5-26.9,9.8-40.9,12.7c-40.7,8-82.4,9.8-123.8,8.6c-31.2-1.1-62.4-4.1-93.2-9.4c-5.5-1.3-11.7-2.4-15.7-6.7
	c-2.6-3-0.3-7.2,2.2-9.4C31.28,381.83,39.38,378.64,47.28,375.73L47.28,375.73z"/>
<path class="st1" d="M296.47,409.93c10.1-3.5,20.9-7.2,28.4-15.2c-1.3,8.7-8.8,14.7-16.2,18.6c-14.2,7.4-30.1,10.8-45.9,13.6
	c-33.4,5.3-67.3,6.6-101.2,6c-23.1-0.7-46.4-1.6-69.1-6.4c-5.4-1.5-11.2-2.5-15.9-5.7c20.2,3.4,40.7,4.8,61.2,5.6
	c33.7,1,67.5-0.3,101-4.5C258.18,419.23,277.68,415.93,296.47,409.93L296.47,409.93z"/>
<path class="st0" d="M32.98,558.23c0.1-32.8-0.1-65.6,0.1-98.5c6.8,0.2,13.6,0,20.4,0.2c-0.1,36.7,0,73.5-0.1,110.3
	c-0.2,10.3-0.4,21.1-5.4,30.3c-5.5,9.8-15.3,16.7-25.7,20.7c-3.3-3.6-6.3-7.4-9.6-11l0,0c8.4-4.9,16.8-11.9,18.8-22
	C33.38,578.33,32.78,568.23,32.98,558.23L32.98,558.23z"/>
<path class="st0" d="M72.38,499.23c13.5-5.8,28.5-8.8,43.2-7.2c7.6,0.9,15.5,3.7,20.4,9.8c4.1,5.2,5.6,11.9,5.5,18.4
	c0,22.4,0,44.7,0,67.1c-5,0-10,0-15.1,0c-0.5-3.3-1-6.7-1.4-10.1c-5.7,4.5-11.8,8.8-18.9,10.6c-8.1,2.1-17,1.9-24.9-1.2
	c-6.1-2.5-10.9-8-12.6-14.4c-2.5-9.3-1.2-20.2,5.4-27.7c5.9-6.9,14.8-10.3,23.6-11.9c8.1-1.6,16.4-1.6,24.7-1.6
	c-0.2-6.3,1-13.2-2.6-18.8c-2.9-4.3-8.2-6-13.1-6.3c-10.7-0.9-21.3,1.8-31.4,5.3C74.18,507.23,73.28,503.23,72.38,499.23
	 M97.18,545.64c-4.4,1.4-8.5,4.6-9.7,9.2c-1.4,5.1-1,11.1,2.3,15.4c3.2,4.2,9,5.2,14,4.6c7-0.8,13.1-4.8,18.5-9.1
	c0-7.5-0.1-14.9,0-22.4C113.88,543.33,105.28,542.83,97.18,545.64L97.18,545.64z"/>
<path class="st0" d="M248.18,499.23c13.6-5.8,28.6-8.9,43.4-7.2c7.4,0.9,15,3.6,19.9,9.4c4.6,5.5,6,12.8,5.9,19.8
	c-0.1,22.1,0.1,44.1-0.2,66.2c-5-0.2-10,0.1-15-0.2c-0.5-3.4-0.9-6.7-1.5-10c-7,6-15.4,10.9-24.9,11.7c-8.7,0.8-18.5-0.3-25.3-6.5
	c-7.1-6.6-8.3-17.3-6.5-26.4c1.7-8.4,8-15.3,15.6-19c11.9-5.8,25.5-6.1,38.5-6c-0.2-6.1,0.9-12.6-2.2-18.1
	c-2.4-4.4-7.5-6.4-12.3-6.9c-11.1-1.2-22.2,1.6-32.6,5.2C250.08,507.23,249.08,503.23,248.18,499.23 M272.68,545.73
	c-4.2,1.4-8.1,4.6-9.4,9c-1.4,5.1-1,11.1,2.2,15.5c3.3,4.3,9.2,5.2,14.3,4.6c6.9-1,13.2-4.8,18.4-9.4c-0.2-7.3-0.1-14.7-0.1-22.1
	C289.58,543.33,280.88,542.83,272.68,545.73L272.68,545.73z"/>
<path class="st0" d="M152.88,493.23c7,0,14,0,21,0c4.1,13.2,8.1,26.3,12.2,39.5c2.4,8.1,5.4,16.1,7.1,24.4c0.9,3.7,1.7,7.5,2.8,11.1
	c8.6-24.3,15.2-49.4,18.6-75c6.8,0,13.6,0,20.4,0c-5.9,32.4-15.2,64.3-29.2,94.1c-8,0-16,0-24,0
	C172.18,555.93,162.48,524.64,152.88,493.23L152.88,493.23z"/>
<g>
	<path class="st0" d="M321.37,491.42h-2.46v-0.89h5.98v0.89h-2.47v7.2h-1.06V491.42z"/>
	<path class="st0" d="M332.61,495.06c-0.06-1.13-0.13-2.5-0.13-3.49h-0.02c-0.29,0.94-0.61,1.96-1.02,3.07l-1.43,3.92h-0.79
		l-1.32-3.85c-0.38-1.15-0.7-2.18-0.92-3.14h-0.02c-0.02,1.01-0.08,2.35-0.16,3.57l-0.22,3.47h-1l0.56-8.08h1.33l1.38,3.91
		c0.34,1,0.6,1.88,0.82,2.72h0.02c0.22-0.82,0.5-1.7,0.86-2.72l1.44-3.91h1.33l0.5,8.08h-1.03L332.61,495.06z"/>
</g>
</svg>
